<?xml version="1.0" encoding="utf-8"?>
<!-- Generator: Adobe Illustrator 23.0.1, SVG Export Plug-In . SVG Version: 6.00 Build 0)  -->
<svg version="1.1" id="Layer_1" xmlns="http://www.w3.org/2000/svg" xmlns:xlink="http://www.w3.org/1999/xlink" x="0px" y="0px"
	 viewBox="0 0 450 400" style="enable-background:new 0 0 450 400;" xml:space="preserve">
<style type="text/css">
	.st0{opacity:0.06;}
	.st1{clip-path:url(#SVGID_2_);fill:url(#SVGID_3_);}
	.st2{opacity:0.57;clip-path:url(#SVGID_2_);fill:url(#SVGID_4_);}
	.st3{opacity:0.57;clip-path:url(#SVGID_2_);fill:url(#SVGID_5_);}
	.st4{clip-path:url(#SVGID_2_);fill:url(#SVGID_6_);}
	.st5{clip-path:url(#SVGID_2_);fill:#A58984;}
	.st6{clip-path:url(#SVGID_2_);}
	.st7{fill:url(#SVGID_7_);}
	.st8{fill:url(#SVGID_8_);}
	.st9{fill:url(#SVGID_9_);}
	.st10{fill:url(#SVGID_10_);}
	.st11{fill:url(#SVGID_11_);}
	.st12{fill:url(#SVGID_12_);}
	.st13{fill:url(#SVGID_13_);}
	.st14{fill:url(#SVGID_14_);}
	.st15{fill:url(#SVGID_15_);}
	.st16{fill:url(#SVGID_16_);}
	.st17{fill:url(#SVGID_17_);}
	.st18{fill:url(#SVGID_18_);}
	.st19{fill:url(#SVGID_19_);}
	.st20{fill:url(#SVGID_20_);}
	.st21{fill:url(#SVGID_21_);}
	.st22{fill:url(#SVGID_22_);}
	.st23{fill:url(#SVGID_23_);}
	.st24{fill:url(#SVGID_24_);}
	.st25{clip-path:url(#SVGID_2_);fill:url(#SVGID_25_);}
	.st26{fill:#F9FBFC;}
	.st27{fill:#FFFFFF;}
	.st28{opacity:0.57;fill:url(#SVGID_26_);}
	.st29{opacity:0.5;fill:url(#SVGID_27_);}
	.st30{fill:#006D75;}
	.st31{fill:#048FA8;}
	.st32{fill:#F0B69E;}
	.st33{fill:#FFAA11;}
	.st34{fill:#330203;}
	.st35{fill:#008091;}
	.st36{fill:#DD8903;}
	.st37{fill:#604548;}
	.st38{fill:#00595B;}
	.st39{fill:#E6DCF4;}
	.st40{fill:#FC5C30;}
	.st41{fill:#FFCE78;}
	.st42{fill:#6135A0;}
	.st43{fill:#E2AF54;}
	.st44{fill:#DD863E;}
	.st45{fill:#C46F30;}
	.st46{fill:#7342C1;}
</style>
<ellipse class="st0" cx="254.64" cy="371.94" rx="34.96" ry="9.11"/>
<ellipse class="st0" cx="392.38" cy="367.41" rx="52.15" ry="13.59"/>
<g>
	<g>
		<defs>
			<rect id="SVGID_1_" x="-196" width="718" height="410"/>
		</defs>
		<clipPath id="SVGID_2_">
			<use xlink:href="#SVGID_1_"  style="overflow:visible;"/>
		</clipPath>
		<linearGradient id="SVGID_3_" gradientUnits="userSpaceOnUse" x1="335.4138" y1="87.366" x2="955.3521" y2="-581.4482">
			<stop  offset="0" style="stop-color:#DBFDFC"/>
			<stop  offset="0.9966" style="stop-color:#ADE1F9"/>
		</linearGradient>
		<path class="st1" d="M-342.59,101.07c0,0,126.63-166.97,377.58-135.51C332.24,2.82,356.93-101.55,478.28-156.4
			c162.4-73.4,299.83-80.18,460.5,3.39l-67.87,381.26l-973.46,160.06l-289.2-38.11L-342.59,101.07z"/>
		
			<linearGradient id="SVGID_4_" gradientUnits="userSpaceOnUse" x1="3489.4414" y1="403.6402" x2="3492.9768" y2="606.3559" gradientTransform="matrix(-1 0 0 1 3948.1355 0)">
			<stop  offset="0" style="stop-color:#00A16D"/>
			<stop  offset="0.9966" style="stop-color:#16E4AF"/>
		</linearGradient>
		<path class="st2" d="M639.86,364.95c-21.57-23.46-48.87-44.63-101.54-57.57c-81.19-19.95-69.77-69.33-136.91-82.44
			c-67.05-13.09-105.69,76.21-110.71,101.08c-2.19,10.87-6.39,24.25-11.83,38.92H639.86z"/>
		
			<linearGradient id="SVGID_5_" gradientUnits="userSpaceOnUse" x1="3737.7808" y1="419.5062" x2="3740.335" y2="565.9473" gradientTransform="matrix(1 0 0 1 -3738.4685 0)">
			<stop  offset="0" style="stop-color:#00A16D"/>
			<stop  offset="0.9966" style="stop-color:#16E4AF"/>
		</linearGradient>
		<path class="st3" d="M-158.71,434.08c33.37-30.56,41.91-67.27,111.18-84.29c58.66-14.42,50.4-50.09,98.9-59.55
			c48.44-9.45,76.35,55.06,79.98,73.02c3.57,17.73,14.56,44.72,26.49,70.82H-158.71z"/>
		<linearGradient id="SVGID_6_" gradientUnits="userSpaceOnUse" x1="488.6276" y1="66.077" x2="-24.2775" y2="615.2408">
			<stop  offset="0" style="stop-color:#00A16D"/>
			<stop  offset="0.9966" style="stop-color:#16E4AF"/>
		</linearGradient>
		<path class="st4" d="M-218.84,425.22c0,0,29.24-53.4,127.93-58.01c98.69-4.6,56.65-54.32,166.31-47.88
			c109.65,6.45,81.34-74.27,142.55-76.42c41.74-1.47,32.11,20.67,79.4,23.43c47.29,2.76,31.53,24.86,82.92,14.5
			c51.4-10.36,29.47-71.13,86.35-73.89c56.88-2.76,56.2-66.29,56.2-66.29l13.35,274.89L-218.84,425.22z"/>
		<path class="st5" d="M20.52,383.58c0,0,103.47-4.67,131.17,0s107.43,6.07,143.05,1.4s59.37-10.73,107.43-4.67
			c48.06,6.07,111.76-1.4,121.56-7l-1.41-36.17c0,0-75.76,10.27-140.79,2.8c-65.02-7.47-49.76,10.73-146.44,9.8
			C138.4,348.8,99.9,347,40.61,348.95L20.52,383.58z"/>
		<g class="st6">
			<g>
				
					<linearGradient id="SVGID_7_" gradientUnits="userSpaceOnUse" x1="6105.9521" y1="2870.3225" x2="6148.1177" y2="2890.3152" gradientTransform="matrix(-0.7954 -0.6061 -0.6061 0.7954 6693.4614 1767.1146)">
					<stop  offset="0" style="stop-color:#009891"/>
					<stop  offset="0.9966" style="stop-color:#08696B"/>
				</linearGradient>
				<path class="st7" d="M103.5,318.6c0.02,2.44-0.37,4.73-0.89,6.96c-0.5,2.24-1.21,4.38-2.02,6.47
					c-1.65,4.16-3.81,8.07-6.38,11.68c-5.14,7.22-11.91,13.36-19.82,17.9c-0.99,0.56-1.98,1.12-3.01,1.63
					c-1.04,0.49-2.06,1-3.11,1.48c-1.07,0.43-2.13,0.88-3.21,1.29c-0.53,0.21-1.08,0.4-1.63,0.58c-0.55,0.19-1.1,0.36-1.66,0.52
					l-1.66,0.5c-0.56,0.16-1.13,0.27-1.7,0.41c-1.13,0.27-2.26,0.52-3.41,0.73c-1.15,0.18-2.31,0.34-3.46,0.49
					c-1.15,0.16-2.33,0.2-3.49,0.25c-2.32,0.16-4.68,0-6.99-0.17c-1.16-0.12-2.32-0.31-3.47-0.5c-0.57-0.1-1.14-0.19-1.71-0.31
					c-0.57-0.14-1.14-0.28-1.7-0.43c-1.13-0.31-2.25-0.62-3.35-1c-1.1-0.42-2.19-0.86-3.25-1.35c-0.53-0.25-1.06-0.46-1.58-0.74
					c-0.52-0.3-1.04-0.58-1.55-0.89c-1.02-0.63-2.02-1.26-2.98-2.02C71.86,365.65,103.5,318.6,103.5,318.6z"/>
				
					<linearGradient id="SVGID_8_" gradientUnits="userSpaceOnUse" x1="6133.0757" y1="2892.9141" x2="6154.144" y2="2861.2932" gradientTransform="matrix(-0.7954 -0.6061 -0.6061 0.7954 6693.4614 1767.1146)">
					<stop  offset="0" style="stop-color:#009891"/>
					<stop  offset="0.9966" style="stop-color:#08696B"/>
				</linearGradient>
				<path class="st8" d="M26.06,359.55l1.46-0.79c0.96-0.53,1.9-1.01,2.83-1.47c0.92-0.51,1.83-1,2.72-1.46l1.33-0.67
					c0.44-0.25,0.87-0.48,1.3-0.72c0.86-0.47,1.71-0.91,2.55-1.34c1.66-0.97,3.31-1.77,4.9-2.7c1.6-0.85,3.16-1.77,4.72-2.6
					c1.54-0.91,3.09-1.7,4.6-2.6l4.56-2.57l2.27-1.31c0.78-0.4,1.52-0.87,2.28-1.31c6.12-3.46,12.31-7.09,19.07-10.69
					c3.37-1.81,6.9-3.61,10.64-5.41c1.87-0.9,3.8-1.79,5.82-2.67c2.01-0.89,4.09-1.77,6.39-2.63c0,0-31.64,47.05-82.03,43.49
					c1.06-0.68,2.09-1.22,3.1-1.77L26.06,359.55z"/>
			</g>
			<g>
				
					<linearGradient id="SVGID_9_" gradientUnits="userSpaceOnUse" x1="6575.8467" y1="614.3226" x2="6557.6064" y2="568.2488" gradientTransform="matrix(-0.9924 -0.123 -0.123 0.9924 6624.2427 570.1893)">
					<stop  offset="0" style="stop-color:#008982"/>
					<stop  offset="0.9966" style="stop-color:#075A5C"/>
				</linearGradient>
				<path class="st9" d="M20.88,367.57c-1.64-1.26-3.63-2.73-2.7-4.82c0.53-1.18,2.73,1.04,3.8,0.23c1.82-1.38-2.74-4-2.18-6.26
					c1.36-5.54,4.7,2.92,6.07,1.93c2.58-1.87-1.41-6.17-1.12-9.25c0.38-4.03,2.94-5.12,4.75-1.04c0.52,1.16,0.63,5.43,2.71,5.22
					c1.19-0.12,0.66-2.53,0.5-3.18c-0.67-2.61-4.45-7.32-1.71-10.05c3.37-3.36,4.53,3.13,5.41,4.97c2.64,5.52,3.13,0.61,1.96-2.42
					c-0.64-1.66-3.21-6.71-0.11-7.74c4.07-1.35,3.41,8.78,6.35,6.4c3.54-2.86-6.34-8.58-3.23-11.18c2.65-2.22,5.93,6.46,7.38,5.8
					c4.15-1.86-3.84-8.93-1.92-11.38c1.75-2.23,3.1,3.42,5.3,2.8c3.25-0.91-2.98-4.72-1.87-7.49c1.32-3.28,4.7,2.34,6.2,1.93
					c2.12-0.57-3.32-4.29-2.01-6.25c1.22-1.82,2.96,2.95,3.97,2.73c2.05-0.44-2.77-3.43-1.5-5.03c0.91-1.16,2.32,0.91,3.34,0.91
					c1.11,0,1.06-4.96,2.98-4.52c0.08,0.02,0.14,0.04,0.21,0.06C60.85,322.32,51.86,348.18,20.88,367.57z"/>
				
					<linearGradient id="SVGID_10_" gradientUnits="userSpaceOnUse" x1="6530.2339" y1="569.9453" x2="6574.1143" y2="593.7153" gradientTransform="matrix(-0.9924 -0.123 -0.123 0.9924 6624.2427 570.1893)">
					<stop  offset="0" style="stop-color:#008982"/>
					<stop  offset="0.9966" style="stop-color:#075A5C"/>
				</linearGradient>
				<path class="st10" d="M63.44,309.95c2.19,0.74-1.37,3.99-0.56,4.92c1.23,1.42,2.54-1.65,3.84-0.33
					c1.43,1.44-4.43,4.73-4.17,5.82c0.47,2.02,5.81-2.02,6.71-0.31c1.41,2.67-4.98,3.72-5.57,6.27c-0.26,1.11,6.01,0.92,6.37,2.63
					c0.67,3.13-9.93,1.11-10.88,2.87c-1.29,2.39,8.67,1.12,7.93,4.63c-0.78,3.71-10.93,0.33-11.8,3.3c-1.07,3.63,8.27,0.71,7.77,4.8
					c-0.73,5.92-10.46-1.37-14.13,1.98c0.79,3.66,10.92,2.03,8.45,6.58c-2.23,4.12-12.67-4.08-13.83,0.02
					c-0.97,3.42,8.12,2.6,8.58,5.54c0.7,4.45-7.81,1.64-9.81,1.14c-2.73-0.69-6.6-0.22-3.23,2.85c1.54,1.4,8.17,2.13,5.65,5.36
					c-2.67,3.42-8.02-1.78-10.55-2.26c-3.73-0.71-1.19,2.03,0.34,3.84c1.45,1.72,2.98,3.48,0.92,4.47c-2.72,1.32-5.46-5.95-7.08-4.2
					c-1.66,1.8,0.09,3.82-2.56,3.1c-2.31-0.62-2.62-2.68-3.71-4.36c-0.34-0.34-0.78-0.68-1.25-1.04
					C51.86,348.18,60.85,322.32,63.44,309.95z"/>
			</g>
		</g>
		<g class="st6">
			<g>
				
					<linearGradient id="SVGID_11_" gradientUnits="userSpaceOnUse" x1="12.2642" y1="-875.4293" x2="-0.8937" y2="-908.665" gradientTransform="matrix(0.5613 0.8276 -0.8276 0.5613 -793.19 817.341)">
					<stop  offset="0" style="stop-color:#008982"/>
					<stop  offset="0.9966" style="stop-color:#075A5C"/>
				</linearGradient>
				<path class="st11" d="M-59.2,336.05c1.36,0.62,2.97,1.4,4.04,0.12c0.6-0.72-1.58-1.39-1.4-2.32c0.3-1.6,3.51,0.42,4.81-0.68
					c3.17-2.68-3.45-2.01-3.25-3.2c0.38-2.25,4.49-1.13,6.41-2.33c2.5-1.56,2.38-3.54-0.88-3.34c-0.93,0.06-3.75,1.39-4.3,0
					c-0.31-0.8,1.43-1.25,1.91-1.36c1.93-0.44,6.24,0.41,7.13-2.22c1.09-3.23-3.53-1.84-5.03-1.79c-4.47,0.14-1.42-1.78,0.93-2.03
					c1.3-0.14,5.44-0.18,5.09-2.48c-0.45-3.02-6.85,0.73-6.27-1.91c0.7-3.18,7.69,1.19,8.37-1.63c0.58-2.41-6.16-1.63-6.22-2.76
					c-0.15-3.24,7.09-0.51,8.06-2.53c0.88-1.84-3.25-0.84-3.57-2.43c-0.47-2.35,4.06,0.34,5.5-1.28c1.71-1.91-3.07-2.2-3.3-3.28
					c-0.32-1.53,3.89,0.69,4.74-0.79c0.79-1.37-2.9-0.9-3.09-1.61c-0.39-1.44,3.15,0.62,3.78-0.7c0.46-0.96-1.35-1.17-1.69-1.81
					c-0.37-0.7,2.89-2.3,1.97-3.37c-0.04-0.04-0.07-0.08-0.11-0.11C-42.78,295.91-56.72,310.1-59.2,336.05z"/>
				
					<linearGradient id="SVGID_12_" gradientUnits="userSpaceOnUse" x1="-20.3439" y1="-907.295" x2="10.9395" y2="-890.3488" gradientTransform="matrix(0.5613 0.8276 -0.8276 0.5613 -793.19 817.341)">
					<stop  offset="0" style="stop-color:#008982"/>
					<stop  offset="0.9966" style="stop-color:#075A5C"/>
				</linearGradient>
				<path class="st12" d="M-35.56,290.21c-1.2-1.14-2.16,2.17-3.03,1.97c-1.33-0.31,0.24-2.14-1.05-2.54
					c-1.41-0.43-1.63,4.35-2.43,4.55c-1.47,0.37-0.59-4.33-2-4.34c-2.21-0.01-0.79,4.37-2.27,5.58c-0.64,0.53-2.57-3.5-3.81-3.17
					c-2.27,0.6,2.54,6.64,1.7,7.82c-1.14,1.6-3.58-5.11-5.63-3.49c-2.17,1.71,3.38,7.02,1.73,8.55c-2.02,1.87-3.18-4.99-5.69-3.33
					c-3.63,2.4,4.33,6.16,3.35,9.58c-2.65,0.71-4.91-6.24-7.08-3.18c-1.96,2.77,6.83,6.67,4.53,8.75c-1.92,1.74-4.36-4.28-6.44-3.6
					c-3.14,1.02,1.49,5.48,2.48,6.57c1.35,1.5,2.31,4.1-0.8,2.98c-1.42-0.51-4.08-4.46-5.36-1.81c-1.36,2.81,3.79,4.48,4.94,5.93
					c1.69,2.12-0.93,1.42-2.62,1.05c-1.6-0.35-3.25-0.74-3.22,0.89c0.03,2.15,5.68,1.5,5.06,3.1c-0.63,1.64-2.52,1.19-1.18,2.64
					c1.17,1.26,2.61,0.78,4.06,0.91c0.33,0.1,0.7,0.27,1.09,0.45C-56.72,310.1-42.78,295.91-35.56,290.21z"/>
			</g>
			<g>
				
					<linearGradient id="SVGID_13_" gradientUnits="userSpaceOnUse" x1="1217.9719" y1="680.6675" x2="1245.0555" y2="693.5093" gradientTransform="matrix(0.8884 0.459 -0.459 0.8884 -840.6313 -868.5975)">
					<stop  offset="0" style="stop-color:#009891"/>
					<stop  offset="0.9966" style="stop-color:#08696B"/>
				</linearGradient>
				<path class="st13" d="M-54.62,282.79c-1.47,0.67-2.74,1.54-3.93,2.46c-1.21,0.92-2.29,1.93-3.32,2.99
					c-2.03,2.13-3.78,4.47-5.22,6.98c-2.9,5.01-4.69,10.66-5.2,16.54c-0.06,0.73-0.12,1.47-0.14,2.21
					c-0.01,0.74-0.03,1.48-0.02,2.22c0.04,0.74,0.07,1.49,0.13,2.23c0.02,0.37,0.06,0.74,0.11,1.11c0.04,0.37,0.09,0.74,0.15,1.11
					l0.16,1.11c0.06,0.37,0.15,0.74,0.23,1.1c0.16,0.73,0.32,1.46,0.52,2.18c0.21,0.72,0.44,1.44,0.68,2.15
					c0.23,0.71,0.53,1.41,0.83,2.1c0.56,1.39,1.31,2.72,2.06,4.01c0.4,0.64,0.84,1.26,1.27,1.88c0.22,0.31,0.44,0.61,0.67,0.91
					c0.25,0.29,0.49,0.58,0.74,0.87c0.5,0.57,1,1.13,1.54,1.67c0.56,0.52,1.13,1.03,1.72,1.51c0.3,0.24,0.57,0.49,0.89,0.71
					c0.32,0.22,0.64,0.44,0.97,0.65c0.67,0.42,1.32,0.82,2.04,1.17C-74,314.37-54.62,282.79-54.62,282.79z"/>
				
					<linearGradient id="SVGID_14_" gradientUnits="userSpaceOnUse" x1="1235.3845" y1="695.214" x2="1249.1572" y2="674.5429" gradientTransform="matrix(0.8884 0.459 -0.459 0.8884 -840.6313 -868.5975)">
					<stop  offset="0" style="stop-color:#009891"/>
					<stop  offset="0.9966" style="stop-color:#08696B"/>
				</linearGradient>
				<path class="st14" d="M-57.51,339.28l0.07-1.07c0.05-0.71,0.08-1.39,0.09-2.05c0.05-0.68,0.09-1.34,0.12-1.99l0.03-0.96
					c0.03-0.32,0.05-0.64,0.07-0.96c0.04-0.63,0.07-1.25,0.09-1.86c0.12-1.24,0.14-2.42,0.25-3.6c0.06-1.17,0.18-2.33,0.24-3.47
					c0.12-1.15,0.16-2.27,0.27-3.41l0.27-3.37l0.15-1.69c0.02-0.56,0.09-1.13,0.14-1.69c0.36-4.53,0.81-9.14,1.07-14.08
					c0.14-2.47,0.24-5.02,0.27-7.7c0.01-1.34,0.01-2.71-0.03-4.13c-0.03-1.42-0.08-2.87-0.21-4.45c0,0-19.39,31.58-3.13,59.87
					c0.11-0.81,0.15-1.56,0.19-2.3L-57.51,339.28z"/>
			</g>
			<g>
				
					<linearGradient id="SVGID_15_" gradientUnits="userSpaceOnUse" x1="1324.0913" y1="363.2716" x2="1305.0607" y2="315.2014" gradientTransform="matrix(0.9702 0.2423 -0.2423 0.9702 -1265.1083 -329.1376)">
					<stop  offset="0" style="stop-color:#008982"/>
					<stop  offset="0.9966" style="stop-color:#075A5C"/>
				</linearGradient>
				<path class="st15" d="M-65.44,341.52c2.09-0.62,4.59-1.32,4.49-3.71c-0.06-1.35-3.07,0-3.8-1.18c-1.25-2.02,4.21-2.89,4.53-5.31
					c0.8-5.91-5.72,1.11-6.67-0.36c-1.8-2.79,3.74-5.5,4.64-8.62c1.17-4.08-0.91-6.1-4.24-2.78c-0.95,0.95-2.7,5.08-4.65,4.1
					c-1.12-0.56,0.32-2.72,0.73-3.29c1.65-2.31,7.15-5.51,5.53-9.19c-2-4.53-5.62,1.38-7.2,2.85c-4.7,4.42-3.29-0.57-0.99-3.09
					c1.27-1.39,5.71-5.37,3.07-7.53c-3.46-2.83-6.69,7.31-8.66,3.9c-2.36-4.11,9.49-6.04,7.45-9.73c-1.74-3.15-8.27,4.11-9.44,2.94
					c-3.35-3.36,7.18-7.31,6.24-10.41c-0.86-2.84-4.34,2.19-6.25,0.77c-2.83-2.09,4.72-3.51,4.69-6.63
					c-0.04-3.69-5.49,0.54-6.8-0.41c-1.85-1.34,4.89-2.97,4.36-5.37c-0.49-2.23-4.02,1.78-4.93,1.2c-1.84-1.19,4.02-2.32,3.4-4.36
					c-0.45-1.47-2.61,0.03-3.61-0.35c-1.08-0.41,0.86-5.25-1.18-5.53c-0.08-0.01-0.16-0.02-0.23-0.02
					C-87.17,282.46-88.29,311.08-65.44,341.52z"/>
				
					<linearGradient id="SVGID_16_" gradientUnits="userSpaceOnUse" x1="1276.5394" y1="317.0522" x2="1322.2168" y2="341.7957" gradientTransform="matrix(0.9702 0.2423 -0.2423 0.9702 -1265.1083 -329.1376)">
					<stop  offset="0" style="stop-color:#008982"/>
					<stop  offset="0.9966" style="stop-color:#075A5C"/>
				</linearGradient>
				<path class="st16" d="M-84.97,269.42c-2.42-0.09,0.18,2.14-0.96,2.75c-1.74,0.93-2.23-0.28-4.01,0.52
					c-1.95,0.88,2.51,6.26,1.85,7.24c-1.23,1.8-4.9-4.12-6.44-2.79c-2.4,2.09,3.44,5.48,3.04,8.19c-0.17,1.18-6.22-1.33-7.24,0.2
					c-1.86,2.81,9.28,4.77,9.53,6.84c0.34,2.82-8.9-2.12-9.53,1.58c-0.66,3.92,10.56,4.38,10.27,7.6c-0.35,3.95-8.36-2.37-9.43,1.81
					c-1.56,6.06,10.75,2.54,13.05,7.17c-2.17,3.29-11.45-2.07-10.79,3.3c0.6,4.86,13.94,0.71,13.51,5.15
					c-0.36,3.71-8.93-0.47-10.51,2.23c-2.39,4.09,7,4.5,9.15,4.75c2.93,0.34,6.54,2.23,2.07,3.98c-2.04,0.8-8.8-0.95-7.58,3.15
					c1.3,4.33,8.52,1.24,11.18,1.71c3.91,0.69,0.38,2.42-1.8,3.63c-2.08,1.14-4.24,2.29-2.62,4.03c2.15,2.3,7.61-3.79,8.52-1.48
					c0.93,2.37-1.55,3.69,1.32,3.98c2.5,0.25,3.59-1.65,5.3-2.88c0.46-0.2,1.02-0.38,1.62-0.56
					C-88.29,311.08-87.17,282.46-84.97,269.42z"/>
			</g>
			<g>
				
					<linearGradient id="SVGID_17_" gradientUnits="userSpaceOnUse" x1="1609.0244" y1="1034.183" x2="1619.656" y2="1014.4418" gradientTransform="matrix(0.7978 -0.6029 0.6029 0.7978 -1996.2258 479.827)">
					<stop  offset="0" style="stop-color:#009891"/>
					<stop  offset="0.9966" style="stop-color:#08696B"/>
				</linearGradient>
				<path class="st17" d="M-76.07,332.62c-0.34-0.44-0.69-0.85-1.03-1.26l-1.04-1.19c-2.77-3.11-5.59-5.72-8.68-8.09
					c-3.09-2.37-6.41-4.51-10.27-6.4c-1.93-0.95-4-1.83-6.26-2.66c-1.14-0.41-2.33-0.79-3.59-1.16c-1.26-0.37-2.58-0.72-4.09-1.02
					c0,0,15.42,23.13,41.35,31.06c-0.72-1.38-1.47-2.46-2.19-3.56c-0.35-0.56-0.72-1.05-1.07-1.56c-0.35-0.52-0.7-1-1.05-1.48
					C-74.69,334.38-75.37,333.45-76.07,332.62z"/>
				
					<linearGradient id="SVGID_18_" gradientUnits="userSpaceOnUse" x1="1595.8756" y1="1018.2544" x2="1615.0463" y2="1028.1093" gradientTransform="matrix(0.7978 -0.6029 0.6029 0.7978 -1996.2258 479.827)">
					<stop  offset="0" style="stop-color:#009891"/>
					<stop  offset="0.9966" style="stop-color:#08696B"/>
				</linearGradient>
				<path class="st18" d="M-111.02,310.84c-0.28,1.5-0.28,2.9-0.2,4.25c0.08,1.35,0.26,2.67,0.54,3.92
					c0.56,2.52,1.42,4.88,2.55,7.06c2.24,4.37,5.44,8.1,9.29,11.09c3.85,2.98,8.37,5.22,13.36,6.26c1.23,0.28,2.52,0.43,3.8,0.55
					c1.31,0.07,2.6,0.12,3.93,0c0.67-0.05,1.33-0.11,2-0.22c0.68-0.13,1.34-0.23,2.02-0.4c0.34-0.09,0.67-0.15,1.01-0.26l1.02-0.33
					c0.68-0.25,1.35-0.5,2.04-0.86C-95.6,333.97-111.02,310.84-111.02,310.84z"/>
			</g>
		</g>
		<g class="st6">
			<g>
				
					<linearGradient id="SVGID_19_" gradientUnits="userSpaceOnUse" x1="439.9047" y1="1106.097" x2="492.5526" y2="1131.0601" gradientTransform="matrix(0.9366 0.3503 -0.3503 0.9366 456.767 -850.3894)">
					<stop  offset="0" style="stop-color:#009891"/>
					<stop  offset="0.9966" style="stop-color:#08696B"/>
				</linearGradient>
				<path class="st19" d="M510,312.14c-2.68,1.63-4.91,3.59-6.99,5.64c-2.11,2.05-3.96,4.24-5.69,6.51
					c-3.42,4.56-6.23,9.47-8.43,14.64c-4.41,10.31-6.53,21.61-6.14,33.04c0.06,1.43,0.11,2.85,0.26,4.29
					c0.16,1.43,0.3,2.86,0.49,4.28c0.25,1.42,0.48,2.85,0.77,4.26c0.13,0.71,0.29,1.41,0.47,2.12c0.17,0.71,0.36,1.41,0.55,2.1
					l0.57,2.09c0.2,0.69,0.47,1.38,0.7,2.07c0.47,1.38,0.96,2.74,1.51,4.09c0.58,1.34,1.19,2.67,1.81,3.99
					c0.61,1.32,1.36,2.59,2.08,3.86c1.4,2.55,3.16,4.95,4.9,7.27c0.91,1.15,1.91,2.25,2.89,3.33c0.5,0.54,0.98,1.08,1.49,1.6
					c0.54,0.51,1.07,1.02,1.63,1.51c1.1,0.99,2.2,1.95,3.35,2.86c1.2,0.88,2.42,1.73,3.67,2.52c0.63,0.39,1.22,0.81,1.88,1.17
					c0.68,0.35,1.34,0.7,2.01,1.04c1.38,0.65,2.73,1.28,4.21,1.78C480.04,377.38,510,312.14,510,312.14z"/>
				
					<linearGradient id="SVGID_20_" gradientUnits="userSpaceOnUse" x1="473.7877" y1="1134.325" x2="500.4305" y2="1094.3373" gradientTransform="matrix(0.9366 0.3503 -0.3503 0.9366 456.767 -850.3894)">
					<stop  offset="0" style="stop-color:#009891"/>
					<stop  offset="0.9966" style="stop-color:#08696B"/>
				</linearGradient>
				<path class="st20" d="M517.65,421.64l-0.12-2.07c-0.07-1.37-0.18-2.69-0.31-3.98c-0.07-1.32-0.14-2.61-0.24-3.86l-0.16-1.86
					c-0.02-0.63-0.06-1.24-0.09-1.86c-0.07-1.23-0.16-2.42-0.26-3.6c-0.06-2.41-0.3-4.69-0.37-7c-0.16-2.27-0.2-4.54-0.35-6.74
					c-0.04-2.24-0.23-4.42-0.27-6.62l-0.28-6.56l-0.11-3.29c-0.09-1.09-0.08-2.2-0.12-3.3c-0.36-8.8-0.58-17.79-1.23-27.37
					c-0.3-4.79-0.72-9.73-1.29-14.89c-0.29-2.58-0.61-5.23-1.02-7.96c-0.38-2.73-0.83-5.52-1.45-8.53c0,0-29.96,65.23,7.99,116.06
					c0.02-1.58-0.08-3.04-0.16-4.47L517.65,421.64z"/>
			</g>
			<g>
				
					<linearGradient id="SVGID_21_" gradientUnits="userSpaceOnUse" x1="570.3795" y1="783.8821" x2="533.3774" y2="690.4176" gradientTransform="matrix(0.9996 0.0296 -0.0296 0.9996 -34.8362 -365.6662)">
					<stop  offset="0" style="stop-color:#008982"/>
					<stop  offset="0.9966" style="stop-color:#075A5C"/>
				</linearGradient>
				<path class="st21" d="M516.98,428.49c3.69-2.03,8.15-4.37,6.94-8.87c-0.68-2.54-5.82,1.26-7.7-0.69
					c-3.21-3.33,6.76-7.2,6.36-11.92c-0.98-11.54-10.36,4.44-12.8,2.03c-4.59-4.55,4.78-11.96,5.17-18.24
					c0.51-8.21-4.29-11.19-9.21-3.53c-1.4,2.18-2.98,10.72-7.08,9.67c-2.36-0.61-0.54-5.29,0-6.53c2.17-5.04,11.24-13.35,6.61-19.67
					c-5.71-7.78-10.08,4.9-12.44,8.35c-7.04,10.29-6.47,0.26-3.18-5.45c1.81-3.15,8.56-12.51,2.66-15.53
					c-7.76-3.96-9.61,16.6-14.77,10.93c-6.21-6.82,15.44-15.31,10.02-21.48c-4.63-5.27-13.94,11.17-16.66,9.41
					c-7.76-5.01,10.53-16.78,7.44-22.28c-2.82-5.03-7.31,5.92-11.53,4.02c-6.24-2.82,7.48-8.57,6.1-14.48
					c-1.62-6.99-10.18,3.26-13.06,1.99c-4.07-1.79,8.02-7.62,6-11.96c-1.88-4.03-6.88,5.02-8.84,4.28
					c-3.98-1.51,6.64-6.04,4.61-9.65c-1.47-2.61-4.94,1.12-7,0.81c-2.23-0.33-0.58-10.3-4.57-9.99c-0.16,0.01-0.3,0.03-0.44,0.06
					C450.91,325.4,460.84,380.1,516.98,428.49z"/>
				
					<linearGradient id="SVGID_22_" gradientUnits="userSpaceOnUse" x1="477.8413" y1="693.9172" x2="566.8101" y2="742.1116" gradientTransform="matrix(0.9996 0.0296 -0.0296 0.9996 -34.8362 -365.6662)">
					<stop  offset="0" style="stop-color:#008982"/>
					<stop  offset="0.9966" style="stop-color:#075A5C"/>
				</linearGradient>
				<path class="st22" d="M449.6,299.76c-4.62,0.82,1.49,8.43-0.42,10.05c-2.91,2.47-4.58-4.08-7.62-1.83
					c-3.33,2.46,7.4,10.85,6.55,12.97c-1.58,3.91-11.03-5.82-13.38-2.66c-3.68,4.94,8.83,8.99,9.21,14.29
					c0.17,2.31-12.36,0.02-13.63,3.34c-2.34,6.09,19.6,5.26,20.95,9.08c1.83,5.2-17.77-0.39-17.39,6.88
					c0.4,7.7,21.86,3.99,22.68,10.22c1.01,7.63-16.84-1.09-17.12,7.28c-0.4,12.11,21.45,0.44,27.76,8.28
					c-2.73,7.12-22.58,0.74-19.06,10.65c3.19,8.96,26.73-4.34,27.78,4.25c0.87,7.18-17.13,2.75-18.98,8.51
					c-2.81,8.73,15.17,5.68,19.35,5.27c5.71-0.55,13.33,1.57,5.6,6.71c-3.53,2.35-17.09,1.8-13.04,9.05
					c4.29,7.69,16.66-1.13,21.92-1.32c7.71-0.29,1.75,4.43-1.89,7.61c-3.46,3.02-7.08,6.08-3.26,8.71
					c5.05,3.48,12.84-10.28,15.54-6.27c2.77,4.12-1.39,7.64,4.18,7.01c4.84-0.54,6.11-4.59,8.83-7.63c0.78-0.57,1.78-1.13,2.84-1.71
					C460.84,380.1,450.91,325.4,449.6,299.76z"/>
			</g>
			<g>
				
					<linearGradient id="SVGID_23_" gradientUnits="userSpaceOnUse" x1="946.9818" y1="196.1885" x2="965.3458" y2="162.0893" gradientTransform="matrix(0.8501 -0.5266 0.5266 0.8501 -439.1732 748.8432)">
					<stop  offset="0" style="stop-color:#009891"/>
					<stop  offset="0.9966" style="stop-color:#08696B"/>
				</linearGradient>
				<path class="st23" d="M491.85,415.22c-0.51-0.81-1.05-1.57-1.57-2.34l-1.59-2.21c-4.26-5.79-8.69-10.73-13.63-15.3
					c-4.93-4.57-10.31-8.78-16.66-12.65c-3.16-1.95-6.58-3.79-10.35-5.56c-1.89-0.88-3.88-1.73-5.99-2.57
					c-2.11-0.84-4.32-1.64-6.87-2.4c0,0,22.8,42.27,66.19,60.02c-1.01-2.49-2.14-4.48-3.19-6.48c-0.52-1.02-1.08-1.91-1.6-2.85
					c-0.52-0.94-1.05-1.84-1.57-2.71C493.94,418.47,492.92,416.75,491.85,415.22z"/>
				
					<linearGradient id="SVGID_24_" gradientUnits="userSpaceOnUse" x1="924.2358" y1="168.6665" x2="957.3729" y2="185.7009" gradientTransform="matrix(0.8501 -0.5266 0.5266 0.8501 -439.1732 748.8432)">
					<stop  offset="0" style="stop-color:#009891"/>
					<stop  offset="0.9966" style="stop-color:#08696B"/>
				</linearGradient>
				<path class="st24" d="M435.18,372.19c-0.72,2.54-0.96,4.95-1.04,7.29c-0.08,2.34,0.02,4.63,0.3,6.84
					c0.55,4.42,1.66,8.62,3.24,12.56c3.15,7.89,8.06,14.81,14.2,20.57c6.15,5.74,13.58,10.31,22,12.89
					c2.07,0.68,4.28,1.14,6.46,1.54c2.24,0.33,4.45,0.62,6.78,0.63c1.16,0.01,2.3,0.02,3.47-0.06c1.19-0.11,2.35-0.18,3.54-0.38
					c0.6-0.1,1.17-0.15,1.78-0.28l1.81-0.41c1.22-0.33,2.41-0.66,3.66-1.16C457.98,414.46,435.18,372.19,435.18,372.19z"/>
			</g>
		</g>
		
			<linearGradient id="SVGID_25_" gradientUnits="userSpaceOnUse" x1="4060.5845" y1="1914.083" x2="4121.1191" y2="1747.08" gradientTransform="matrix(-0.9275 0.3739 -0.3739 -0.9275 4427.3813 571.8213)">
			<stop  offset="0" style="stop-color:#00895C"/>
			<stop  offset="0.9966" style="stop-color:#14CC9C"/>
		</linearGradient>
		<path class="st25" d="M106.27,408.97c0,0-63.26-50.46-81.91-45.23c-18.65,5.23-28.4,6.78-33.38,2.05
			c-4.03-3.83-9.38-6.31-22.35-1.36c-12.97,4.95-23.77-6.93-22.17-20.38c2.56-21.49,1.28-53.85-25.78-52.45
			c-43.47,2.26-32.03,40.81-94.63,26.56s-26.02,85.41-26.02,85.41l19.76,57.92L106.27,408.97z"/>
	</g>
	<g>
		<g>
			<path class="st26" d="M-33.26,391.05"/>
			<path class="st26" d="M-37.56,390.92"/>
		</g>
	</g>
	<path class="st27" d="M426.03,122.31c0.65-3.62,3.85-6.38,7.72-6.38c0.59,0,1.16,0.07,1.72,0.19c1.4-5.21,6.2-9.06,11.94-9.06
		c0.89,0,1.75,0.1,2.59,0.27c2.73-3.2,6.82-5.24,11.4-5.24c6.64,0,12.26,4.28,14.18,10.19c0.71-0.16,1.45-0.25,2.21-0.25
		c5.43,0,9.83,4.33,9.83,9.67c0,0.2-0.02,0.4-0.03,0.6H426.03z"/>
	<path class="st27" d="M338.1,110.31c0.61-1.84,2.37-3.17,4.44-3.17c0.27,0,0.54,0.03,0.79,0.07c1.73-3.63,5.47-6.14,9.81-6.14
		c3.86,0,7.24,1.99,9.16,4.98c0.77-0.33,1.62-0.52,2.51-0.52c2.98,0,5.47,2.04,6.13,4.77H338.1z"/>
	
		<radialGradient id="SVGID_26_" cx="160.5299" cy="163.7312" r="58.2358" gradientTransform="matrix(1.1308 0 0 1.1127 -30.5911 -85.7468)" gradientUnits="userSpaceOnUse">
		<stop  offset="0" style="stop-color:#FFAA11"/>
		<stop  offset="0.9966" style="stop-color:#FFE2B3"/>
	</radialGradient>
	<ellipse class="st28" cx="172.8" cy="135.74" rx="25.07" ry="24.66"/>
	
		<linearGradient id="SVGID_27_" gradientUnits="userSpaceOnUse" x1="361.7922" y1="128.181" x2="332.7328" y2="181.3509" gradientTransform="matrix(-1 0 0 1 557.671 0)">
		<stop  offset="0" style="stop-color:#DBFDFC"/>
		<stop  offset="0.9966" style="stop-color:#ADE1F9"/>
	</linearGradient>
	<path class="st29" d="M231.41,148.38c-0.52-2.91-3.09-5.12-6.19-5.12c-0.47,0-0.93,0.06-1.38,0.15c-1.12-4.18-4.97-7.26-9.57-7.26
		c-0.71,0-1.41,0.08-2.08,0.22c-2.19-2.57-5.47-4.2-9.14-4.2c-5.33,0-9.83,3.43-11.37,8.17c-0.57-0.13-1.16-0.2-1.77-0.2
		c-4.35,0-7.88,3.47-7.88,7.75c0,0.16,0.01,0.32,0.02,0.48H231.41z"/>
</g>
<ellipse class="st0" cx="391.06" cy="369.5" rx="45.16" ry="11.77"/>
<g>
	<path class="st30" d="M376.51,275.59c-3.66,1.76-6.83,4.93-10.14,7.27c-3.62,2.55-7.38,4.91-10.94,7.56
		c-8.55,6.37-17.83,12.43-27.26,17.5c-4.11,2.21-8.37,4.2-12.47,6.42c-3.74,2.03-7.51,4.1-11.59,5.45
		c-4.67,1.55-9.27,3.27-13.92,4.89c-5.1,1.78-10.44,2.28-15.59,3.86c-4.68,1.43-9.08,2.75-13.93,3.65
		c-2.92,0.54-5.84,1.16-8.77,1.69c-1.83,0.33-3.37,0.82-5.11,1.41c-1.34,0.46-3.36,0.6-4.47,1.39c-0.45,0.32-1.03-0.41-0.6-0.77
		c1.24-1.03,3.21-1.2,4.69-1.72c2.61-0.9,5.12-1.4,7.82-1.94c4.86-0.96,10.12-1.4,14.82-3.02c5.17-1.78,10.26-2.7,15.54-4.05
		c4.88-1.25,9.69-3.08,14.41-4.84c19.18-7.12,36.89-17.73,53.67-29.24c4.37-2.99,8.56-6.17,13.08-8.98
		c3.49-2.17,6.75-5.34,10.64-6.81C376.56,275.26,376.67,275.52,376.51,275.59L376.51,275.59z"/>
	<path class="st31" d="M439.92,367.07c-2.38,0.4-4.7,1.13-6.88,2.15c-0.25-0.41-0.5-0.82-0.74-1.23
		c-5.61,3.51-12.77,3.56-19.32,2.47c-1.06-0.18-2.39-0.72-2.27-1.77c0.05-0.42,0.34-0.77,0.67-1.04c1.42-1.13,3.43-0.99,5.24-1.27
		c4.42-0.67,8.16-4.45,8.74-8.81c3.04,0.72,7.32,0.62,10.12,1.93C436.83,360.14,440.56,366.96,439.92,367.07z"/>
	<path class="st31" d="M370.35,369.79c-3,0.2-6.05-0.45-8.7-1.84c0.23-0.34,0.38-0.73,0.43-1.14c-7.23-1.05-14.12-4.23-19.57-9.02
		c0.7-1.15,2.28-1.47,3.62-1.25c1.34,0.22,2.58,0.85,3.9,1.18c4.61,1.15,9.23-1.52,13.22-4.07c2.07,2.16,6.33,5.07,7.48,7.79
		C371.1,362.31,370.69,369.77,370.35,369.79z"/>
	<path class="st32" d="M404.57,219.06c-2.4,2.81-5.7,4.74-9.13,6.17c-1.43,0.6-2.93,1.12-4.48,1.16c-1.55,0.04-3.19-0.49-4.16-1.67
		c-1.02-1.24-1.17-2.96-1.15-4.56c0.03-2.5,0.35-5,0.96-7.43c1.52-6.09,7.18-14.04,14.75-11.59
		C409.13,203.67,409.01,213.86,404.57,219.06z"/>
	<path class="st32" d="M403.82,226.83c0.98,2.92,2.43,6.2,0.93,8.9c-1.29,2.31-4.66,3.11-6.96,1.76c-2.26-1.33-3.15-4.07-3.87-6.57
		c-0.41-1.42-0.81-2.85-1.22-4.27c-0.47-1.66-0.95-3.34-1.05-5.06c-0.12-2.14,0.36-4.3,1.37-6.19c1.64-3.06,7.07-3.2,8.76-0.11
		C403.48,218.38,402.66,223.4,403.82,226.83z"/>
	<path class="st33" d="M389.4,278.47c0.34,5.81-2.5,11.28-5.01,16.55c-4.91,10.28-8.86,20.99-11.8,31.97
		c-1.05,3.91-1.98,7.89-3.88,11.48c-1.67,3.15-4.06,5.96-5.17,9.34c-0.84,2.57-1.49,6.04-3.98,7.19c2.26,1.06,3.82,3.12,5.55,4.89
		c1.73,1.78,3.64,3.72,6.14,3.52c10.77-18.27,13.47-40.66,27.12-56.96c4.56,7.16,6.29,15.73,10.48,23.1
		c0.95,1.68,2.03,3.28,3.1,4.89c5.3,7.95,10.64,16.32,11.75,25.76c0.04,0.32,0.08,0.65,0.28,0.89c0.22,0.26,0.57,0.35,0.9,0.43
		c3.7,0.85,7.59,0.94,11.33,0.26c0.52-0.09,1.1-0.25,1.33-0.71c0.2-0.38,0.09-0.84-0.03-1.26c-2.56-9-6.01-17.75-10.27-26.09
		c-2.31-4.52-4.86-8.93-6.77-13.63c-1.99-4.92-3.25-10.09-4.49-15.24c-0.47-1.96-0.95-3.94-0.97-5.95
		c-0.05-5.14,2.86-10.43,0.94-15.22C406.87,283.86,397.96,281.47,389.4,278.47z"/>
	<path class="st34" d="M401.34,215.99c-0.42,1.06-1.36,1.87-2.41,2.36c2.81,0.99,1.66,3.86,4.28,5.28c2.31-2.32,4.63-4,5.88-7.01
		c0.92-2.23,1.18-4.66,1.42-7.05c0.23-2.29,0.41-4.81-0.91-6.71c-1.17-1.68-3.25-2.47-5.23-3.04c-4.18-1.2-8.53-1.83-12.89-1.86
		c-1.43-0.01-3.04,0.12-3.99,1.18c-0.59,0.66-0.81,1.57-0.8,2.45c0.04,2.67,2.28,5.15,4.97,5.49c1.28,0.16,2.57-0.11,3.86-0.03
		c1.29,0.08,2.69,0.64,3.14,1.83c-0.17,2.44-1.74,3.5-1.74,3.5s1.18,1.03,1.11,1.57C399.98,211.65,402.29,213.74,401.34,215.99z"/>
	<path class="st32" d="M376.77,269.99c-0.34,0.07-0.69,0.17-0.98,0.36c-0.63,0.43-0.89,1.21-1.1,1.93c-0.26,0.89-0.5,1.92,0.06,2.67
		c0.19,0.26,0.47,0.45,0.74,0.64c1.17,0.82,2.35,1.64,3.52,2.45c0.77,0.53,1.61,1.09,2.55,1.05c0.82-0.04,1.53-0.53,2.25-0.92
		c1.5-0.8,3.22-1.2,4.93-1.13c-0.3-2.37-0.43-5.01-2.7-6.18C384,269.82,378.98,269.53,376.77,269.99z"/>
	<path class="st34" d="M239.09,335.61c-2.04-1.55-3.77-3.46-5.69-5.15c-1.92-1.69-4.12-3.2-6.64-3.71
		c-2.52-0.51-5.42,0.17-6.98,2.19c-0.7,0.91-1.09,2.01-1.76,2.93c-1,1.37-2.63,2.28-4.34,2.41c-0.78,0.6-0.39,1.58,0.12,2.41
		c0.51,0.83,1.39,1.36,2.24,1.87c1.29,0.76,2.59,1.53,3.88,2.29c-0.93-0.02-1.87,0.2-2.69,0.63c0.57,1.05,1.86,1.48,3.05,1.65
		c1.19,0.17,2.45,0.19,3.51,0.76c1.13,0.62,1.83,1.77,2.76,2.64c0.93,0.88,2.44,1.47,3.48,0.72c-0.7,1.48-0.93,3.48-0.98,5.11
		c-0.05,1.47,0.17,2.97-0.23,4.39c-0.35,1.21-1.12,2.25-1.93,3.23c-1.36,1.64-2.86,3.17-4.47,4.57c-0.34,0.29-0.69,0.6-0.85,1.01
		c-0.38,1,0.54,2,1.44,2.59c1.25,0.81,2.65,1.41,4.11,1.74c0.41,0.1,0.86,0.17,1.26,0.02c0.45-0.17,0.75-0.59,1.02-0.98
		c2.05-3.03,4.28-5.7,6.34-8.73c0.37-0.54,1.51-1.26,1.53-1.91c1.67,0.89,4.12,1.55,6.49,2.18c2.37,0.62,4.85,1.59,6.17,3.62
		c1.14,1.76,1.19,3.98,1.52,6.05c0.06,0.4,0.15,0.83,0.45,1.13c0.2,0.21,0.48,0.32,0.76,0.4c2.14,0.6,4.5-0.75,5.51-2.7
		c1.01-1.95,0.89-4.3,0.24-6.39c-0.72-2.31-2.13-4.49-4.26-5.68c-0.06,0.23-0.12,0.47-0.18,0.7c3.71,0.34,7.49-1.09,10.98-2.38
		c-0.83,2.98-1.66,6.18-4.32,7.81c-1.12,0.69-2.69,1.4-2.53,2.68c0.09,0.71,0.72,1.22,1.3,1.64c1.43,1.01,3.08,1.99,4.83,1.75
		c1.72-0.24,3.03-1.59,4.19-2.87c2.44-2.68,2.42-4.79,4.48-9.44c0.48,1.61,2.43,2.55,3.77,3.59c1.34,1.05,1.76,2.07,2.72,3.46
		c0.97,1.39,1.27,2.99,1.37,4.67c0.1,1.6,3.18,0.94,4.42-0.1c1.24-1.04,1.86-2.61,2.43-4.12c0.25-0.67,0.51-1.37,0.39-2.08
		c-0.08-0.47-0.32-0.9-0.56-1.31c-1.92-3.27-3.87-6.08-4.58-9.79c-0.48-2.55-0.46-4.94-1.09-7.46c-0.42-1.65-1.16-3.4-0.5-4.97
		c0.73-1.72,1.95-3.1,2.34-4.93c0.07-0.32,0.12-0.67-0.01-0.97c-0.16-0.35-0.53-0.55-0.87-0.72c-1.99-0.98-4.04-1.84-6.14-2.58
		c-0.65-0.23-1.33-0.45-2.02-0.42c-0.64,0.03-1.24,0.27-1.8,0.57c-2.09,1.13-4.99,4.95-5.65,5.13c-7.01,1.92-14.4,1.87-21.67,1.81
		C243.29,336.56,240.79,336.9,239.09,335.61z"/>
	<path class="st34" d="M394.01,216.31c-0.72,0.98-1.47,2-2.55,2.58c-1.08,0.58-2.59,0.57-3.39-0.36c-0.33-0.38-0.51-0.87-0.84-1.25
		c-0.33-0.38-0.94-0.62-1.34-0.31c-0.2,0.15-0.3,0.41-0.39,0.65c-0.68,1.88-1.36,3.77-2.04,5.65c-0.35,0.97-0.67,2.15,0,2.95
		c0.32,0.38,0.81,0.58,1.29,0.74c1.64,0.53,3.4,0.7,5.11,0.48c1.15-0.14,2.55-0.19,3.25,0.72c0.73-0.92,1.82-1.67,2.77-2.36
		c0.95-0.7,1.86-1.62,1.98-2.78c0.15-1.37-0.83-2.61-1.06-3.97c-0.27-1.57,0.44-3.65,1.29-5.19c0.31-0.56-0.28-1.18-1.06-1.56
		C395.93,213.52,394.99,214.96,394.01,216.31z"/>
	<path class="st35" d="M401.9,224.77c-2.04,0.32-3.49,2.07-4.65,3.74c-7.96,11.45-12.07,25.45-11.54,39.31
		c-0.34,0.35-0.69,0.7-1.03,1.06c0.4,2.81,0.8,5.62,1.2,8.44c0.05,0.39,0.12,0.8,0.4,1.08c0.3,0.31,0.76,0.38,1.12,0.61
		c0.57,0.36,0.81,1.06,1.01,1.7c1.09,3.51,2.19,7.01,3.28,10.52c0.19,0.62,0.44,1.31,1.03,1.61c0.51,0.25,1.12,0.14,1.68,0
		c4.54-1.12,8.83-3.04,13.31-4.38c4.47-1.35,9.31-2.11,13.82-0.85c0.61-10.85-5.26-21.12-5.77-31.97c-0.23-4.81,0.59-9.74-0.66-14.4
		C413.94,236.99,407.62,223.88,401.9,224.77z"/>
	<path class="st30" d="M405.27,231.94c-3.83-2-7.01,1.64-7.65,5c-0.78,4.07,1.2,7.49,2.35,11.26c1,3.28,0.99,6.63,2.68,9.62
		c0.03,0.06-0.05,0.11-0.09,0.05c-1.05-1.47-1.39-2.2-1.77-4.08c-0.46-2.31-0.98-4.5-1.84-6.72c-0.89-2.31-2.23-4.48-2.37-6.97
		c-0.27-4.63,3.04-11.38,8.75-8.26C405.4,231.87,405.33,231.98,405.27,231.94L405.27,231.94z"/>
	<g>
		<path class="st30" d="M399.33,261.25"/>
	</g>
	<path class="st30" d="M402.91,259.52c0.38-0.98-2.43,1.37-1.49,0.68c-0.82,0.6-1.56,1.41-2.37,2.05c-0.94,0.74-1.88,1.42-3.02,1.88
		c-2.24,0.9-4.56,1.98-6.89,2.66c-0.07,0.02-0.11-0.08-0.05-0.11c0.77-0.37,1.34-0.94,2.08-1.35c1.1-0.61,2.46-0.99,3.6-1.56
		c2.6-1.28,5.36-2.7,7.27-5c0.06-0.07,0.2-0.11,0.29-0.08c0.6,0.22,0.57,0.19,0.95,0.71c0.13,0.18-0.15,0.36-0.3,0.23
		c-0.02-0.02-0.03-0.03-0.05-0.05C402.91,259.58,402.9,259.54,402.91,259.52L402.91,259.52z"/>
	<path class="st30" d="M414.2,258.4c0.06,1.85,0.32,5.03-0.7,6.7c-1.27,2.1-5.34,3-7.38,4.38c-2.81,1.9-5.59,3.84-8.42,5.72
		c-2.08,1.39-4.64,3.36-7.23,3.56c-0.12,0.01-0.14-0.17-0.03-0.2c5.59-1.76,10.46-6.5,15.13-9.79c1.61-1.14,3.52-1.65,5.18-2.64
		c3.1-1.85,3.23-4.45,3.35-7.73C414.11,258.35,414.19,258.35,414.2,258.4L414.2,258.4z"/>
	<path class="st30" d="M404.64,226.61c-0.54-1.51-5.88,3.48-6.28,4.11c-0.65,1.03-1.27,2.18-1.83,3.26
		c-1.41,2.73-2.59,5.59-3.94,8.35c-2.51,5.13-4.57,10.03-6.13,15.52c-0.01,0.03-0.06,0.02-0.06-0.01c0.28-6.67,4.3-13.21,7.02-19.12
		c2.1-4.55,4.79-12.88,11.26-12.4c0.06,0,0.1,0.05,0.11,0.11c0,0.05,0.01,0.1,0.01,0.16C404.81,226.68,404.67,226.69,404.64,226.61
		L404.64,226.61z"/>
	<path class="st30" d="M405.15,271.49c-0.9,5.27,1.14,10.64,1.33,15.9c0,0.04-0.06,0.04-0.07,0c-0.55-5.22-2.54-10.64-1.36-15.92
		C405.07,271.4,405.16,271.43,405.15,271.49L405.15,271.49z"/>
	<path class="st36" d="M430.78,360.84c-0.41-0.75-0.82-1.49-1.23-2.24c-0.11-0.04-0.21-0.15-0.16-0.28c0.7-1.99-0.94-5.3-1.72-7.19
		c-0.88-2.13-1.65-4.25-2.65-6.34c-1.06-2.24-2.03-4.51-3.14-6.72c-0.68-1.35-1.58-4.93-3.33-4.85c-0.17,0.01-0.31-0.12-0.36-0.27
		c-4.43-12.58-11.6-25.67-11.41-39.33c0-0.07,0.1-0.07,0.11,0c0.79,9.21,3.56,18.3,6.86,26.94c1.22,3.18,2.49,6.22,4.14,9.18
		c-2.15-3.86,0.67,1.52,0.82,1.72c0.52,0.7,0.93,0.74,1.18,1.07c0.18,0.23,0.35,0.43,0.6,0.78c0.56,0.79,0.82,2.6,1.23,3.55
		c0.8,1.88,1.7,3.72,2.51,5.59c1.36,3.13,2.86,6.18,4.13,9.35c0.73,1.84,1,4.29,1.72,5.95c0.61,1.4,1.8,1.59,0.92,3.17
		C430.94,361.06,430.72,360.97,430.78,360.84L430.78,360.84z"/>
	<path class="st36" d="M392.43,301.04c-1.16,1.85-2.22,4.3-3.28,6.23c-1.33,2.42-2.79,4.74-4.06,7.18
		c-2.52,4.82-4.51,10.09-6.05,15.18c-1.42,4.7-2.25,9.73-4.21,14.25c-1.15,2.66-2.69,5.19-4,7.78c-0.84,1.65-1.9,3.59-3.78,4.15
		c-0.27,0.08-0.43-0.31-0.19-0.45c2.93-1.68,4.45-5.6,5.99-8.39c1.5-2.72,2.69-5.28,3.49-8.3c1.07-4,1.12-8.72,2.88-12.33
		c4.12-8.46,7.82-17.44,13.15-25.33C392.39,300.97,392.45,301,392.43,301.04L392.43,301.04z"/>
	<path class="st36" d="M397.94,305.02c-0.85-1.15-1.51-2.4-2.47-3.47c-0.97-1.08-2.09-2.05-3.03-3.15
		c-1.84-2.17-2.31-4.24-2.09-7.04c0.01-0.17,0.25-0.16,0.26,0c0.16,1.85,0.34,3.62,1.31,5.24c0.81,1.34,1.92,2.33,2.96,3.47
		c1.39,1.53,2.21,3.09,3.16,4.91C398.06,305.03,397.98,305.08,397.94,305.02L397.94,305.02z"/>
	<path class="st35" d="M438.29,365.42c-0.01,0.05-0.01,0.1-0.02,0.16c-0.01,0.05-0.04,0.08-0.09,0.09c-2.35,0.3-4.57,1.72-6.87,2.33
		c-2.72,0.72-5.4,1.6-8.08,2.46c-3.53,1.14-8.21,0.27-11.46-1.51c-0.14-0.08-0.05-0.3,0.11-0.26c2.37,0.65,5.12,1.49,7.58,1.57
		c2.13,0.07,4.06-0.89,6.07-1.42c2.3-0.61,4.67-1.05,6.94-1.7c0.41-0.12,5.69-1.78,5.68-1.74
		C438.17,365.33,438.3,365.34,438.29,365.42L438.29,365.42z"/>
	<path class="st35" d="M368.72,367.21c-2.23-0.24-3.89-1.32-5.98-2c-2.66-0.87-5.43-1.02-8.09-1.92c-3.24-1.09-7.99-2.41-10.04-5.42
		c-0.03-0.05,0.04-0.09,0.08-0.06c3.02,2.81,7.57,4.05,11.42,5.24c2.22,0.69,4.55,0.99,6.75,1.72c2,0.66,3.77,1.88,5.88,2.28
		C368.84,367.06,368.82,367.22,368.72,367.21L368.72,367.21z"/>
	<path class="st35" d="M361.63,357.96c-1.42,0.56-3.29,0.77-4.82,0.89c-1.02,0.08-2,0.11-2.78-0.58c-0.06-0.05,0-0.15,0.08-0.13
		c2.44,0.75,5-0.55,7.49-0.43C361.75,357.73,361.76,357.91,361.63,357.96L361.63,357.96z"/>
	<path class="st35" d="M426.43,362c0.02-0.05,0.03-0.1,0.05-0.14c0.05-0.15,0.27-0.06,0.2,0.08c-0.39,0.81-1.26,1.47-2,1.97
		c-0.86,0.58-1.67,1.2-2.51,1.79c-0.72,0.51-1.7,1.03-2.57,1.24c-0.96,0.23-1.34-0.23-2.23-0.42c-0.2-0.04-0.15-0.34,0.05-0.34
		c0.97,0,1.64,0.28,2.61-0.16c0.85-0.39,1.48-0.87,2.22-1.41c0.44-0.33,0.96-0.61,1.45-0.86c0.96-0.49,1.79-1.29,2.79-1.72
		C426.46,362.06,426.42,362.04,426.43,362L426.43,362z"/>
	<path class="st37" d="M274.78,357.02c0.08,0.15,1.04,1.87,0.72,1.42c0.09,0.13-0.13,0.26-0.22,0.13c-0.3-0.45-1.65-1.96-2.19-2.25
		c0.08,0.05,0.23-0.93,0,0.38c-0.02,0.1-0.17,0.17-0.26,0.1c-0.66-0.48-0.95-1.96-0.97-0.75c0,0.17-0.22,0.26-0.34,0.14
		c-0.61-0.61-1.26-1.19-1.95-1.71c0.13,0.16,0.02,0.47-0.23,0.39c-0.38-0.13-0.63-0.38-0.93-0.62c-0.78-0.62-0.26-0.86-0.15,0.06
		c0.02,0.18-0.2,0.31-0.35,0.27c-1.75-0.45-3.22-0.5-5-0.47c-1.44,0.02-2.53-0.09-3.68-0.96c-0.03-0.02,0-0.08,0.03-0.06
		c2.05,1.21,3.76,0.26,5.9,0.32c0.39,0.01,2.54,0.62,2.33-0.07c-0.08-0.26,0.27-0.45,0.46-0.26c0.45,0.46,1.11,1.73,1.09,1.15
		c-0.01-0.16,0.18-0.24,0.31-0.18c0.44,0.22,2.18,1.72,1.95,0.93c-0.06-0.2,0.21-0.29,0.33-0.14c0.17,0.74,0.55,1,1.14,0.77
		c-0.03-0.14,0.19-0.26,0.26-0.11c-0.13-0.29,1.75,2.58,2.12,2.4c-0.5,0.24-0.44-0.89-0.42-0.85
		C274.72,357.01,274.77,356.99,274.78,357.02L274.78,357.02z"/>
	<path class="st37" d="M236.32,356.67c0.28,0.47,0.52,0.94,0.75,1.44c0.07,0.15-0.09,0.39-0.27,0.26c-0.21-0.15-1.49-1.4-1.44-1.41
		c0.24-0.03-0.24,0.64-0.21,0.6c-0.08,0.09-0.24,0.08-0.31,0c-0.32-0.33-1.32-1.68-0.96-0.52c0.09,0.29-0.35,0.4-0.45,0.12
		c0.25,0.68-0.8-1.4-0.81-1.08c-0.01,0.18-0.22,0.34-0.39,0.22c-1.12-0.81-1.76-1.79-1.84-3.17c-0.04-0.62,0-1.22,0.2-1.81
		c0.15-0.45,0.93-1.72,0.62-2.25c-0.05-0.09,0.06-0.21,0.15-0.15c0.46,0.31,0.33,0.86,0.24,1.36c-0.11,0.55-0.32,1-0.45,1.56
		c-0.38,1.59,0.16,2.98,1.41,4.06c-0.15,0.06-0.3,0.12-0.44,0.18c0.02-0.19,0.04-0.37,0.06-0.56c0.02-0.18,0.19-0.29,0.36-0.2
		c0.66,0.32,1.14,1.04,1.36,1.71c-0.15,0.04-0.3,0.08-0.45,0.12c-0.13-0.47-0.1-0.93-0.01-1.4c0.03-0.16,0.27-0.22,0.38-0.1
		c0.27,0.31,1.1,1.66,1.15,1.03c0.01-0.18,0.22-0.28,0.37-0.15c0.42,0.39,1.26,1.38,0.78,0.22
		C236.05,356.64,236.25,356.56,236.32,356.67L236.32,356.67z"/>
	<path class="st37" d="M222.95,329.36c0.23,0.71,0.13,1.08-0.04,1.81c-0.19,0.81-0.53,1.58-0.68,2.4c-0.32,1.68,0.18,2.56,0.86,3.97
		c-0.15,0.06-0.3,0.12-0.45,0.19c-0.22-1.23-0.24-1.68-0.11-2.89c0.02-0.23,0.36-0.24,0.37,0c0.03,0.96,0.05,1.82,0.22,2.76
		c0.05,0.25-0.32,0.45-0.45,0.19c-0.75-1.5-1.33-2.64-0.91-4.34c0.29-1.19,1.29-2.77,1.02-4.02
		C222.74,329.29,222.91,329.24,222.95,329.36L222.95,329.36z"/>
	<path class="st37" d="M223.09,334.94c0.26,0.38,0.31,0.74,0.36,1.19c0.1,0.93,0.48,1.6,1.25,2.19c0.7,0.53,1.11,1,1.14,1.92
		c-0.14,0-0.27,0-0.41,0c-0.05-1.36-0.38-2.91-1.27-3.96c-0.1-0.12,0.05-0.27,0.17-0.17c1.18,0.95,1.43,2.69,1.5,4.13
		c0.01,0.26-0.39,0.26-0.41,0c-0.1-1.19-1.51-1.7-2.11-2.69c-0.48-0.78-0.26-1.7-0.38-2.57
		C222.91,334.89,223.04,334.87,223.09,334.94L223.09,334.94z"/>
	<path class="st37" d="M224.59,336.41c0.21,0.1,0.36,0.21,0.51,0.38c0.32,0.38,0.64,0.91,0.92,1.34c0.36,0.56,0.67,1.15,0.92,1.76
		c0.24,0.58,0.39,1.24,1.06,1.46c-0.08,0.05-0.17,0.09-0.25,0.14c0.1-0.26-0.29-0.64-0.38-0.86c-0.14-0.3-0.23-0.66-0.3-0.98
		c-0.22-0.93-0.08-1.92,0.03-2.86c0.01-0.09,0.13-0.09,0.14,0c0.12,1.17,0,2.37,0.45,3.48c0.16,0.4,0.64,0.87,0.46,1.33
		c-0.04,0.1-0.14,0.18-0.25,0.14c-0.86-0.29-1.02-0.95-1.31-1.7c-0.27-0.69-0.62-1.4-1.03-2.03c-0.21-0.32-0.75-1.26-1.05-1.45
		C224.41,336.5,224.49,336.36,224.59,336.41L224.59,336.41z"/>
	<path class="st37" d="M228.87,331.14c0.55,0.17,0.73,0.61,0.92,1.12c0.36,0.98,0.83,2.01,0.63,3.06c-0.04,0.18-0.32,0.21-0.4,0.05
		c-0.25-0.48-0.6-0.87-0.94-1.3c0.1-0.08,0.21-0.16,0.31-0.23c0.24,0.51,0.22,0.61,0.24,1.17c0.04,1.11-0.04,2.15,0.09,3.27
		c0.03,0.29-0.39,0.3-0.48,0.06c-0.29-0.79-0.61-1.56-0.91-2.34c-0.08-0.21,0.28-0.36,0.37-0.16c0.59,1.33,0.03,2.91,0.33,4.33
		c0.04,0.21-0.25,0.45-0.42,0.24c-0.31-0.4-1.09-2.83-1.18-2.86c-0.15-0.04-0.13-0.31,0.04-0.28c0.04,0.01,0.09,0.01,0.13,0.02
		c0.07,0.01,0.13,0.04,0.15,0.11c0.32,0.94,0.58,1.86,1.22,2.67c-0.14,0.08-0.28,0.16-0.42,0.24c-0.13-0.61-0.27-1.24-0.23-1.87
		c0.05-0.85,0.36-1.57,0.01-2.44c0.12-0.05,0.25-0.1,0.37-0.16c0.34,0.79,0.69,1.57,1.01,2.37c-0.16,0.02-0.32,0.04-0.48,0.06
		c-0.1-1.04,0.24-3.34-0.19-4.24c-0.09-0.18,0.15-0.41,0.31-0.23c0.41,0.48,0.73,0.8,1.04,1.35c-0.13,0.02-0.27,0.03-0.4,0.05
		c0.17-0.78-0.37-3.46-1.18-3.93C228.75,331.22,228.79,331.11,228.87,331.14L228.87,331.14z"/>
	<path class="st37" d="M221.65,334.12c-0.11-0.17-0.18-0.37-0.26-0.55c-0.12-0.27-0.27-0.5-0.48-0.71
		c-0.21-0.21-0.45-0.37-0.71-0.51c-0.21-0.11-0.44-0.18-0.6-0.37c-0.13-0.15-0.01-0.41,0.21-0.35c0.36,0.09,0.59,0.16,0.91,0.37
		c0.27,0.17,0.49,0.39,0.67,0.65c0.19,0.27,0.29,0.5,0.38,0.81c0.07,0.23,0.2,0.43,0.07,0.66
		C221.78,334.18,221.69,334.18,221.65,334.12L221.65,334.12z"/>
	<path class="st37" d="M220.5,332.32c0,0.25-0.09,0.6,0.05,0.84c0.09,0.16,0.39,0.27,0.46,0.12c0.04-0.08,0-0.23,0-0.32
		c0-0.14,0.15-0.21,0.27-0.15c0.37,0.17,0.13,0.79-0.22,0.85c-0.48,0.08-0.47-0.59-0.28-0.85c0.23-0.32,0.6,0.19,0.24,0.31
		c-0.04,0.01-0.07,0.01-0.11,0c0.08-0.1,0.16-0.2,0.24-0.31c0.07,0.11,0.05,0.19,0.03,0.31c0,0.02-0.04,0.18-0.05,0.18
		c-0.15,0.05-0.18-0.25-0.03-0.19c0.09-0.07,0.17-0.13,0.26-0.2c0.04,0.25,0.26,0.47,0.03,0.71c-0.2,0.22-0.59,0.22-0.85,0.13
		c-0.58-0.22-0.64-1.12-0.23-1.51C220.37,332.17,220.5,332.22,220.5,332.32L220.5,332.32z"/>
	<path class="st37" d="M221.03,332.81c0.01-0.01,0.05-0.15,0.02-0.04c-0.01,0.04-0.03,0.09-0.04,0.13
		c-0.02,0.08-0.06,0.18-0.11,0.25c-0.11,0.16-0.3,0.21-0.47,0.11c-0.11-0.07-0.14-0.27,0-0.33c0.15-0.07,0.16-0.17,0.28-0.29
		c0.08-0.08,0.2-0.07,0.28,0c0.01,0.01,0.03,0.02,0.04,0.03C221.08,332.7,221.06,332.77,221.03,332.81L221.03,332.81z"/>
	<path class="st37" d="M216.5,338.32c0.55,0.18,1.35,0.65,1.75,1.05c0.48,0.48,0.2,0.53,0.06-0.14c-0.04-0.2,0.2-0.29,0.32-0.13
		c0.4,0.53,0.79,1.12,1.15,1.66c0.18,0.28,0.07,0.49,0.02,0.16c-0.05-0.31-0.14-0.45-0.11-0.76c0.01-0.14,0.19-0.19,0.27-0.07
		c0.69,0.99,1.12,1.67,2.16,2.38c0.55,0.38,1.09,0.65,1.47,1.2c0.06,0.08-0.06,0.16-0.13,0.1c-0.85-0.71-1.87-1.2-2.71-1.93
		c-0.26-0.23-0.83-0.74-0.85-1.11c-0.01-0.19,0.27,0.37,0.31,0.55c0.03,0.1-0.09,0.2-0.18,0.14c-0.83-0.56-1.17-1.37-1.71-2.15
		c0.11-0.04,0.21-0.09,0.32-0.13c0.06,0.34,0.32,0.61,0.23,0.95c-0.03,0.1-0.18,0.15-0.26,0.07c-0.48-0.56-1.47-1.39-2.17-1.67
		C216.35,338.45,216.39,338.29,216.5,338.32L216.5,338.32z"/>
	<path class="st37" d="M218.63,340.24c-0.96,0.24-1.16,1.55-1.43,2.3c-0.15,0.44-0.61,0.98-1.1,0.55c-0.45-0.39-0.14-1.45,0.01-1.9
		c0.15-0.43,0.35-0.82,0.61-1.19c0.29-0.43,0.56-0.52,0.96-0.81c0.27-0.2,0.64,0.26,0.37,0.47c-0.27,0.22-0.59,0.37-0.81,0.64
		c-0.25,0.31-0.45,0.67-0.59,1.04c-0.11,0.28-0.29,0.74-0.19,1.03c0.15,0.44,0.2-0.11,0.28-0.35c0.21-0.68,0.87-2.18,1.78-2.08
		c0.08,0.01,0.13,0.04,0.16,0.12c0.01,0.02,0.02,0.05,0.02,0.07C218.71,340.18,218.68,340.23,218.63,340.24L218.63,340.24z"/>
	<path class="st37" d="M218.23,339.9c-0.25,0.14-0.67,0.46-0.78,0.73c-0.1-0.1-0.21-0.21-0.31-0.31c0.15-0.04,0.24-0.25,0.36-0.34
		c0.15-0.12,0.35-0.19,0.5-0.31c0.2-0.17,0.58,0.06,0.4,0.3c-0.29,0.38-0.76,0.52-1,0.95c-0.26,0.46-0.65,1.11-0.58,1.66
		c-0.14-0.08-0.28-0.16-0.42-0.23c0.02-0.01,0.04-0.01,0.07-0.02c0.27-0.08,0.49,0.22,0.35,0.45c-0.01,0.02-0.02,0.04-0.03,0.06
		c-0.18,0.31-0.6,0.14-0.64-0.17c-0.07-0.67,0.29-1.27,0.6-1.83c0.14-0.26,0.26-0.49,0.49-0.69c0.23-0.2,0.54-0.29,0.77-0.48
		c0.12,0.12,0.24,0.23,0.36,0.35c-0.2,0.18-0.43,0.29-0.62,0.47c-0.16,0.14-0.23,0.28-0.46,0.32c-0.22,0.04-0.39-0.17-0.29-0.37
		c0.2-0.41,0.74-0.84,1.22-0.72C218.3,339.73,218.31,339.85,218.23,339.9L218.23,339.9z"/>
	<path class="st37" d="M215.09,334.84c0.2,0.12,0.42,0.09,0.55,0.34c0.06,0.12,0.05,0.23,0.01,0.35c-0.02,0.07-0.07,0.12-0.1,0.19
		c-0.06,0.14-0.06,0.22-0.06,0.38c-0.03,0.8-0.67,1.01-1.31,0.65c-0.02-0.01-0.01-0.05,0.02-0.04c0.13,0.03,0.3,0.01,0.43-0.04
		c0.22-0.08,0.21-0.14,0.25-0.33c0.04-0.2,0.01-0.41,0.06-0.6c0.05-0.18,0.19-0.25,0.26-0.4c0.1-0.2-0.09-0.27-0.21-0.38
		C214.94,334.9,215.02,334.8,215.09,334.84L215.09,334.84z"/>
	<path class="st37" d="M280.51,336.06c-0.64,0.81-1.96,1.33-3,1.3c-0.12,0-0.22-0.14-0.15-0.25c0.27-0.41,0.69-0.57,0.96-1.02
		c0.09,0.08,0.17,0.17,0.26,0.25c-0.66,0.43-1.34,0.77-2.14,0.91c-0.92,0.16-1.83-0.14-2.76-0.16c-0.21,0-0.2-0.29,0-0.31
		c0.77-0.07,1.45,0.02,2.22,0.02c0.95,0,1.68-0.29,2.48-0.79c0.16-0.1,0.36,0.1,0.26,0.25c-0.11,0.16-0.58,0.78-0.66,0.71
		c0.34,0.28,2.3-0.94,2.41-1.03C280.48,335.88,280.57,335.98,280.51,336.06L280.51,336.06z"/>
	<path class="st37" d="M275.23,336.49c-0.66,0.3-1.18,0.63-1.92,0.63c-1.05,0-2.25-0.36-3.3-0.52c-0.16-0.03-0.23-0.27-0.1-0.37
		c0.47-0.38,1.05-0.77,1.68-0.82c0.27-0.02,0.3,0.37,0.06,0.44c-1.45,0.46-3.59,0.24-4.92-0.41c-0.1-0.05-0.05-0.22,0.06-0.22
		c1.51,0.07,3.28,0.64,4.74,0.19c0.02,0.15,0.04,0.3,0.06,0.44c-0.42,0.03-1.12,0.49-1.36,0.68c-0.03-0.12-0.07-0.25-0.1-0.37
		c1.78,0.28,3.25,0.49,5.02,0.14C275.25,336.29,275.33,336.44,275.23,336.49L275.23,336.49z"/>
	<path class="st30" d="M228.98,348.92c8.5-1.45,13.13-11.73,13.36-12.16l-2.22-1.14c-0.05,0.09-5.56,10.16-12.84,11.4L228.98,348.92
		z"/>
	<path class="st38" d="M237.03,344.27c-0.3,0.44-0.79,0.81-1.17,1.18c-0.26,0.25-0.57,0.57-0.92,0.69c-0.58,0.2-0.93-0.21-1.25-0.63
		c-0.34-0.45-0.72-1.04-0.36-1.55c0.49-0.72,1.33-1.07,1.94-1.66c0.05-0.05,0.13,0,0.12,0.07c-0.07,0.45-0.68,0.87-1,1.15
		c-0.21,0.19-0.53,0.33-0.7,0.54c-0.33,0.41-0.26,0.71,0.09,1.07c0.21,0.22,0.43,0.48,0.75,0.54c0.47,0.08,1-0.32,1.34-0.57
		c0.38-0.27,0.83-0.5,1.16-0.85C237.02,344.24,237.04,344.26,237.03,344.27L237.03,344.27z"/>
	<path class="st38" d="M237.31,344.28c-0.43-0.13-0.8-0.41-1.13-0.71c-0.26-0.24-0.63-0.54-0.66-0.91c-0.01-0.12,0.15-0.14,0.2-0.05
		c0.21,0.3,0.58,0.61,0.87,0.84c0.28,0.22,0.55,0.45,0.81,0.69C237.46,344.19,237.4,344.31,237.31,344.28L237.31,344.28z"/>
	<path class="st38" d="M236.31,343.4c-0.06,0.3-0.41,0.55-0.64,0.73c-0.19,0.15-0.51,0.41-0.77,0.44c-0.11,0.02-0.21-0.15-0.08-0.2
		c0.25-0.1,0.49-0.45,0.69-0.62c0.2-0.17,0.41-0.42,0.68-0.48C236.26,343.26,236.32,343.32,236.31,343.4L236.31,343.4z"/>
	<path class="st38" d="M235.15,344.39c0.21,0.37-0.27,0.68-0.56,0.38c-0.28-0.3,0.07-0.71,0.4-0.51c0.04,0.02,0.03,0.07,0,0.09
		c-0.05,0.04-0.14,0.07-0.17,0.12c-0.12,0.05-0.11,0.09,0.04,0.11c0.13,0.1,0.17,0.06,0.13-0.12
		C234.96,344.37,235.11,344.31,235.15,344.39L235.15,344.39z"/>
	<path class="st38" d="M233,346.15c-0.47,0.35-0.58-0.61,0.03-0.33c0.04,0.02,0.06,0.06,0.06,0.1c0,0.02,0,0.03,0,0.05
		c0,0.08-0.12,0.14-0.17,0.07c-0.04-0.03-0.04-0.04-0.01-0.04C233.01,345.94,233.09,346.08,233,346.15L233,346.15z"/>
	<path class="st38" d="M231.42,346.9c0.01,0.01,0.02,0.02,0.03,0.03c0.05,0.04,0.04,0.11,0,0.15c-0.38,0.43-0.78-0.29-0.23-0.32
		c0.05,0,0.09,0.03,0.12,0.07c0.01,0.02,0.03,0.04,0.04,0.06c0.05,0.08-0.03,0.16-0.11,0.15
		C231.27,347.03,231.35,346.84,231.42,346.9L231.42,346.9z"/>
	<path class="st38" d="M229.67,347.73c0.06,0.09,0.06,0.13,0.03,0.22c-0.02,0.07-0.08,0.1-0.15,0.11c-0.47,0.06-0.37-0.64,0-0.46
		c0.06,0.03,0.07,0.11,0.04,0.17c-0.01,0.02-0.02,0.03-0.02,0.05c-0.02,0.03-0.07,0.05-0.1,0.03c0.01-0.04,0.01-0.08,0.02-0.11
		C229.54,347.67,229.63,347.67,229.67,347.73L229.67,347.73z"/>
	<path class="st38" d="M237.63,342.28c-0.06,0.13-0.12,0.16-0.26,0.17c-0.03,0-0.07-0.02-0.08-0.05c-0.08-0.16-0.03-0.3,0.16-0.35
		c0.03-0.01,0.08,0,0.1,0.03c0.07,0.08,0.08,0.1,0.07,0.21c-0.01,0.06-0.08,0.11-0.13,0.05c-0.08-0.1-0.04-0.11,0.07-0.15
		C237.62,342.17,237.65,342.23,237.63,342.28L237.63,342.28z"/>
	<path class="st38" d="M239.3,340.19c0.01,0.24-0.33,0.54-0.51,0.27c-0.16-0.23,0.13-0.47,0.35-0.34c0.08,0.05,0.12,0.19,0.03,0.26
		c-0.04,0.03-0.07,0.05-0.13,0.05c-0.19-0.02,0-0.14,0.01-0.24C239.07,340.04,239.29,340.04,239.3,340.19L239.3,340.19z"/>
</g>
<ellipse class="st0" cx="150.72" cy="376.48" rx="34.96" ry="9.11"/>
<g>
	<path class="st39" d="M162.87,337.74c-7.45,2.83-14.91-1.58-20.21-7.73c-5.36-6.21-9.64-14.01-13.47-21.62
		c-6.96-13.81-11.99-30.73-24.42-38.99c-5.07-3.37-13.46-6.19-18.23-0.7c-0.28,0.32,0.15,0.83,0.43,0.51
		c2.67-3.07,6.74-3.13,10.18-2.39c3.2,0.68,6.22,2.26,8.94,4.36c5.98,4.6,10.26,11.49,13.82,18.74c3.66,7.44,6.78,15.23,10.68,22.51
		c3.75,7,7.88,14.28,13.17,19.75c5.26,5.43,12.39,8.88,19.29,6.26C163.4,338.3,163.24,337.6,162.87,337.74z"/>
	<g>
		<path class="st40" d="M24.45,352.32c0,0,1.85,1.55,1.71,2.87c-0.14,1.32-1.33,1.69-2.06,3.75c-0.43,1.21-0.48,1.76,0,3.46
			c0.48,1.7,3.46,12.17,2.07,12.33c-3.27,0.39-14.21-13.92-13.45-15.96c0.77-2.04,6.45-9.41,7.84-9.85
			C21.95,348.49,24.45,352.32,24.45,352.32z"/>
		<path class="st41" d="M57.83,296.97c-0.46,0.12-14.18,37.36-32.44,56.57c-0.35,0.37-0.83,0.53-1.29,0.41
			c-0.78-0.19-1.98-0.76-2.9-2.39c-0.37-0.66-0.31-1.54,0.12-2.15c3.53-5.02,17.46-24.85,24.45-58.42L57.83,296.97z"/>
		<path class="st40" d="M89.85,359.07c0,0,2.17-1.94,2.48,1.95c0.31,3.88,0.57,4.11,1.7,4.65c1.13,0.55,9.1,2.02,9.79,5.65
			c0.36,1.88-15.29,6.08-17.64,3.32c-1.11-1.31,0.05-5.25-0.73-7.66c-0.7-2.16-1.96-5.53-0.82-7.03l2.61-3.93L89.85,359.07z"/>
		<path class="st41" d="M68.41,285.73c0,0,13.47,31.84,21.44,73.34c0,0-1.69,2.6-5.22,0.88c0,0-17.58-51.56-27.6-68.96L68.41,285.73
			z"/>
		<path class="st42" d="M63.22,256.9c0,0,7.11,26.99,12.89,36.15c0,0-9.06,18.46-36.6,5.08c0,0,4.61-10.92,4.49-16.79
			c-0.19-9.33-2.32-16.89-0.78-23.31l10.12-9.79L63.22,256.9z"/>
		<path class="st41" d="M95.45,264.92c-0.49-1.07-5.17-2.22-5.17-2.22s-14.07-11.62-16.95-14.75c-1.97-2.15-11.29-27.44-11.29-27.44
			l-2.12,7.12v4.41c0,0,7.6,17,9.84,20.2c2.23,3.2,20.15,14.28,20.15,14.28s-0.74,2.01,1.2,3.18c1.7,1.03,4.84,1.08,5.16-0.36
			c0.29,0.17,0.57,0.25,0.84,0.18C98.14,269.22,95.94,266,95.45,264.92z"/>
		<path class="st40" d="M47.84,225.73l-0.28-4.28c0,0,4.5-5.87,9.66-4.42c2.37,0.66,5.31,1.88,5.99,7.51
			c0.68,5.64-1.1,23.97,0.01,32.35c0,0-8.26,6.32-16.66,3.33l-4.39-8.7l4.39-16.08L47.84,225.73z"/>
		<path class="st42" d="M50.26,192.24c0,0-0.56-2.25-2.66-2.29c-2.3-0.04-4.09,7.05-2.3,8.83c1.79,1.78,3.92,0,3.92,0L50.26,192.24z
			"/>
		<path class="st42" d="M63.02,201.56c0,0-1.18-3.03,1.39-5.22c2.56-2.19,2.6-5.22,0.97-7.21c-1.63-1.99-4.05,0-4.05,0
			s-4.9-3.84-10.21,0.48c-2.68,2.19-4.6,8.36-2.82,14.12c1.78,5.76,5.03,6.08,4.67,8.36c-0.37,2.29-2.29,3.01-2.29,3.01
			s6.67,4.82,8.52-3.83C60.27,206.2,63.02,201.56,63.02,201.56z"/>
		<path class="st43" d="M62.44,212.55c0,0-3.37,1.58-3.03,5.19c0.34,3.61,1.5,6.49-0.02,8.42c-1.53,1.93-6.4-7.05-5.46-8.86
			c1.28-2.47,2.73-5.48,2.02-8.46C55.24,205.87,62.44,212.55,62.44,212.55z"/>
		<path class="st41" d="M54.88,207.61c0,0-1.89-2.08-2.69-0.74c-0.81,1.34,0.65,3.45,2.2,3.75c1.55,0.3,1.78-0.37,1.78-0.37
			s1.89,4.82,5.73,4.01c3.84-0.81,6.57-9.21,2.51-17.92c0,0-1.69,1.49-5.32,1.87c-3.63,0.38-4.54,1.98-4.71,4.31
			c-0.17,2.33,1.32,4.35,1.32,4.35L54.88,207.61z"/>
		<path class="st41" d="M52.02,278.67c0,0-6-24.57-6.19-29.02c-0.19-4.46,6.35-20.24,5.86-24.68c-0.49-4.45-2.64-5.76-4.14-3.52
			c-1.33,1.98-7.31,22.65-7.27,28.46c0.04,5.81,8.77,31.37,8.77,31.37s-0.02,7.67,4.11,10.41c4.13,2.73-1.61-7.45,0.9-8.15
			c2.51-0.71,4.92-4.35,3.15-4.09C55.45,279.71,52.94,280.33,52.02,278.67z"/>
	</g>
	<g>
		<g>
			<path class="st44" d="M172.85,369.08c-1.47-0.25-6.61-9.52-6.61-9.52c8.87-14.39,1.47-23.17,1.47-23.17
				c2.55-0.2,3.52-4.22,6.16-5.99c2.65-1.76,3-6.49,2.09-9.66c-0.91-3.17-2.22-1.25-3.93-0.84c-1.71,0.42-4.57-3.37-4.57-3.37
				c-4.57-3.37-7.97,0-7.97,0c-3.12-1.54-7.86,4.54-6.71,8.76c1.15,4.23-1.12,9.38-1.12,9.38c2.05,1.84,6.2-0.95,6.2-0.95
				c1.17,5.13-2.65,11.61-6.2,9.07c-3.55-2.54-7.98-1.9-9.88-0.89c-1.9,1.01-2.96,0-4.89-3.45c-1.93-3.45-0.72-9.74-0.5-11.78
				c0.22-2.04-6.14-0.11-5.36,8.68c0.78,8.79,6.17,9.59,6.17,9.59s-1.84,1.5-2.64,4.71c-1.05,4.17-0.34,8.5-0.34,8.5
				s-0.84,2.74-0.2,4.58c0.58,1.68,2.67,2.33,1.99,4.88c0,0-1.94,5.23-1.76,7.24c0.19,2,11.4,3.34,13.12,2.89
				c1.73-0.45-5.12-5.82-4.35-7.3c0.77-1.48,2.83-4.53,2.83-4.53c4.4,1.93,11.16,0.34,11.16,0.34s-0.13,0.34-0.31,0.85l0.06-0.08
				l3.81-1.6l2.14,3.51c0.33-0.27,0.9-0.12,0.9-0.12s3.86,6.46,4.58,7.01c0.72,0.55,6.55-2.82,7.66-4.3
				C176.97,370.03,174.32,369.33,172.85,369.08z"/>
		</g>
		<path class="st45" d="M134.22,358.16c0,0-1.32-0.32-2.67,1.05c-1.06,1.08-5.59,12.15-4.46,12.77c1.13,0.62,6.56-3.92,7.74-4.46
			c1.18-0.54,1.17,0.09,1.17,0.09C137.7,362.78,134.76,362.63,134.22,358.16z"/>
		<path class="st45" d="M175.96,320.74c-0.65-2.26-1.5-1.93-2.56-1.41c0.57,0.73,1.5,1.62,2.58,1.49
			C175.97,320.79,175.97,320.76,175.96,320.74z"/>
		<path class="st45" d="M161.04,364.56l-4.01,1.69c0,0-1.5,3.98-1.55,5.46c-0.05,1.48,4.7,2.58,6.58,3.47
			c1.87,0.89,1.74-1.32,1.53-2.08c-0.7-2.5,0.04-4.29,0.04-4.29L161.04,364.56z"/>
		<path class="st46" d="M157.86,333.73c0,0,3.23,1.96,9.84,2.66c0,0,1.47,1.38,2.1,4.2c0,0-8.15-0.57-12.42-1.16
			C157.39,339.43,156.6,336.22,157.86,333.73z"/>
		<path class="st45" d="M157.86,333.73c0,0,4.05-5.06,3.14-9.22c0,0,2.12,5.4-1.82,9.86L157.86,333.73z"/>
	</g>
</g>
<ellipse class="st0" cx="59.08" cy="373.11" rx="42.7" ry="11.13"/>
<ellipse class="st0" cx="250.48" cy="373.3" rx="34.96" ry="9.11"/>
<g>
</g>
<g>
</g>
<g>
</g>
<g>
</g>
<g>
</g>
<g>
</g>
<g>
</g>
<g>
</g>
<g>
</g>
<g>
</g>
<g>
</g>
<g>
</g>
<g>
</g>
<g>
</g>
<g>
</g>
</svg>
