<?xml version="1.0" encoding="utf-8"?>
<!-- Generator: Adobe Illustrator 23.0.1, SVG Export Plug-In . SVG Version: 6.00 Build 0)  -->
<svg version="1.1" id="Layer_1" xmlns="http://www.w3.org/2000/svg" xmlns:xlink="http://www.w3.org/1999/xlink" x="0px" y="0px"
	 viewBox="0 0 1902 707" style="enable-background:new 0 0 1902 707;" xml:space="preserve">
<style type="text/css">
	.st0{opacity:0.06;}
	.st1{clip-path:url(#SVGID_2_);fill:url(#SVGID_3_);}
	.st2{opacity:0.57;clip-path:url(#SVGID_2_);fill:url(#SVGID_4_);}
	.st3{opacity:0.57;clip-path:url(#SVGID_2_);fill:url(#SVGID_5_);}
	.st4{clip-path:url(#SVGID_2_);fill:url(#SVGID_6_);}
	.st5{clip-path:url(#SVGID_2_);fill:#A58984;}
	.st6{clip-path:url(#SVGID_2_);}
	.st7{fill:url(#SVGID_7_);}
	.st8{fill:url(#SVGID_8_);}
	.st9{fill:url(#SVGID_9_);}
	.st10{fill:url(#SVGID_10_);}
	.st11{fill:url(#SVGID_11_);}
	.st12{fill:url(#SVGID_12_);}
	.st13{fill:url(#SVGID_13_);}
	.st14{fill:url(#SVGID_14_);}
	.st15{fill:url(#SVGID_15_);}
	.st16{fill:url(#SVGID_16_);}
	.st17{fill:url(#SVGID_17_);}
	.st18{fill:url(#SVGID_18_);}
	.st19{fill:url(#SVGID_19_);}
	.st20{fill:url(#SVGID_20_);}
	.st21{fill:url(#SVGID_21_);}
	.st22{fill:url(#SVGID_22_);}
	.st23{fill:url(#SVGID_23_);}
	.st24{fill:url(#SVGID_24_);}
	.st25{clip-path:url(#SVGID_2_);fill:url(#SVGID_25_);}
	.st26{fill:#F9FBFC;}
	.st27{fill:#FFFFFF;}
	.st28{opacity:0.57;fill:url(#SVGID_26_);}
	.st29{opacity:0.5;fill:url(#SVGID_27_);}
	.st30{fill:#006D75;}
	.st31{fill:#048FA8;}
	.st32{fill:#F0B69E;}
	.st33{fill:#FFAA11;}
	.st34{fill:#330203;}
	.st35{fill:#008091;}
	.st36{fill:#DD8903;}
	.st37{fill:#604548;}
	.st38{fill:#00595B;}
	.st39{opacity:0.06;fill:url(#SVGID_28_);}
	.st40{fill:#E6DCF4;}
	.st41{fill:#FC5C30;}
	.st42{fill:#FFCE78;}
	.st43{fill:#6135A0;}
	.st44{fill:#E2AF54;}
	.st45{fill:#DD863E;}
	.st46{fill:#C46F30;}
	.st47{fill:#7342C1;}
</style>
<ellipse class="st0" cx="1194.5" cy="622" rx="92.5" ry="20.11"/>
<ellipse class="st0" cx="1559" cy="612" rx="138" ry="30"/>
<g>
	<g>
		<defs>
			<rect id="SVGID_1_" x="2" y="-199" width="1900" height="905"/>
		</defs>
		<clipPath id="SVGID_2_">
			<use xlink:href="#SVGID_1_"  style="overflow:visible;"/>
		</clipPath>
		<linearGradient id="SVGID_3_" gradientUnits="userSpaceOnUse" x1="1422.0009" y1="69.727" x2="2983.6541" y2="-1615.0469">
			<stop  offset="0" style="stop-color:#DBFDFC"/>
			<stop  offset="0.9966" style="stop-color:#ADE1F9"/>
		</linearGradient>
		<path class="st1" d="M-353.91,113.09c0,0,335.1-368.56,999.18-299.11c786.59,82.26,851.91-148.13,1173.04-269.2
			c429.74-162.02,793.42-176.98,1218.6,7.48L2857.3,393.83L281.29,747.14L-484,663.01L-353.91,113.09z"/>
		
			<linearGradient id="SVGID_4_" gradientUnits="userSpaceOnUse" x1="3665.3896" y1="693.5533" x2="3673.2146" y2="1142.2094" gradientTransform="matrix(-1 0 0 1 5400.1353 0)">
			<stop  offset="0" style="stop-color:#00A16D"/>
			<stop  offset="0.9966" style="stop-color:#16E4AF"/>
		</linearGradient>
		<path class="st2" d="M2213.89,606.57c-57.08-51.78-129.33-98.5-268.71-127.07c-214.86-44.05-184.63-153.04-362.28-181.96
			c-177.43-28.88-279.69,168.22-292.96,223.12c-5.8,23.99-16.92,53.53-31.3,85.92H2213.89z"/>
		
			<linearGradient id="SVGID_5_" gradientUnits="userSpaceOnUse" x1="4257.4429" y1="728.1058" x2="4263.0938" y2="1052.0966" gradientTransform="matrix(1 0 0 1 -3738.4685 0)">
			<stop  offset="0" style="stop-color:#00A16D"/>
			<stop  offset="0.9966" style="stop-color:#16E4AF"/>
		</linearGradient>
		<path class="st3" d="M100.68,759.15c88.31-67.46,110.9-148.48,294.21-186.06c155.22-31.82,133.38-110.56,261.72-131.45
			c128.18-20.87,202.05,121.53,211.64,161.19c9.46,39.14,38.52,98.72,70.1,156.33H100.68z"/>
		<linearGradient id="SVGID_6_" gradientUnits="userSpaceOnUse" x1="1750.7012" y1="-139.2616" x2="458.9846" y2="1243.77">
			<stop  offset="0" style="stop-color:#00A16D"/>
			<stop  offset="0.9966" style="stop-color:#16E4AF"/>
		</linearGradient>
		<path class="st4" d="M-58.43,739.6c0,0,77.38-117.88,338.53-128.04s149.92-119.91,440.09-105.68
			c290.17,14.23,215.24-163.94,377.22-168.69c110.45-3.24,84.98,45.62,210.11,51.72c125.13,6.1,83.42,54.87,219.44,32.01
			c136.02-22.86,77.98-157,228.51-163.1s148.71-146.33,148.71-146.33l35.32,606.78L-58.43,739.6z"/>
		<path class="st5" d="M574.96,647.68c0,0,273.8-10.3,347.12,0c73.31,10.3,284.28,13.39,378.54,3.09
			c94.26-10.3,157.1-23.7,284.28-10.3c127.18,13.39,295.75-3.09,321.68-15.45l-3.74-79.84c0,0-200.49,22.67-372.55,6.18
			c-172.06-16.48-131.67,23.7-387.52,21.63c-255.85-2.06-357.75-6.03-514.65-1.73L574.96,647.68z"/>
		<g class="st6">
			<g>
				
					<linearGradient id="SVGID_7_" gradientUnits="userSpaceOnUse" x1="6822.7314" y1="3107.6814" x2="6936.3438" y2="3161.5508" gradientTransform="matrix(-0.7954 -0.6061 -0.6061 0.7954 8089.6548 2238.447)">
					<stop  offset="0" style="stop-color:#009891"/>
					<stop  offset="0.9966" style="stop-color:#08696B"/>
				</linearGradient>
				<path class="st7" d="M794.55,504.25c0.05,5.39-0.99,10.44-2.34,15.36c-1.33,4.95-3.2,9.67-5.36,14.28
					c-4.38,9.18-10.07,17.81-16.89,25.78c-13.6,15.94-31.5,29.49-52.45,39.51c-2.63,1.24-5.24,2.48-7.97,3.6
					c-2.74,1.09-5.45,2.22-8.22,3.26c-2.84,0.95-5.64,1.94-8.49,2.84c-1.41,0.46-2.86,0.88-4.32,1.27
					c-1.45,0.41-2.92,0.79-4.38,1.16l-4.39,1.11c-1.47,0.35-3,0.61-4.49,0.91c-3,0.59-5.99,1.15-9.02,1.61
					c-3.05,0.41-6.12,0.75-9.16,1.08c-3.04,0.34-6.16,0.43-9.24,0.56c-6.13,0.34-12.38,0.01-18.49-0.37
					c-3.07-0.26-6.15-0.69-9.18-1.1c-1.52-0.23-3.03-0.42-4.53-0.68c-1.51-0.32-3.01-0.61-4.51-0.96c-2.99-0.68-5.94-1.38-8.85-2.2
					c-2.92-0.92-5.79-1.9-8.61-2.98c-1.41-0.55-2.81-1.02-4.19-1.64c-1.38-0.65-2.75-1.29-4.1-1.96c-2.7-1.4-5.34-2.77-7.88-4.45
					C710.82,608.12,794.55,504.25,794.55,504.25z"/>
				
					<linearGradient id="SVGID_8_" gradientUnits="userSpaceOnUse" x1="6897.5366" y1="3165.8884" x2="6945.0283" y2="3094.6091" gradientTransform="matrix(-0.7954 -0.6061 -0.6061 0.7954 8089.6548 2238.447)">
					<stop  offset="0" style="stop-color:#009891"/>
					<stop  offset="0.9966" style="stop-color:#08696B"/>
				</linearGradient>
				<path class="st8" d="M589.63,594.65l3.86-1.75c2.54-1.17,5.03-2.24,7.48-3.25c2.44-1.12,4.83-2.21,7.19-3.23l3.51-1.49
					c1.15-0.56,2.3-1.06,3.44-1.59c2.28-1.04,4.53-2.01,6.75-2.97c4.4-2.15,8.75-3.91,12.96-5.95c4.25-1.87,8.36-3.92,12.49-5.74
					c4.07-2.01,8.17-3.76,12.18-5.75l12.08-5.68l6.02-2.89c2.06-0.87,4.03-1.92,6.04-2.88c16.19-7.64,32.57-15.65,50.47-23.59
					c8.93-4,18.26-7.97,28.15-11.94c4.95-1.98,10.05-3.96,15.4-5.9c5.32-1.97,10.82-3.91,16.91-5.8c0,0-83.73,103.86-217.07,95.99
					c2.82-1.5,5.54-2.69,8.2-3.91L589.63,594.65z"/>
			</g>
			<g>
				
					<linearGradient id="SVGID_9_" gradientUnits="userSpaceOnUse" x1="7451.2212" y1="885.9996" x2="7408.6558" y2="778.4827" gradientTransform="matrix(-0.9924 -0.123 -0.123 0.9924 8089.5439 660.6501)">
					<stop  offset="0" style="stop-color:#008982"/>
					<stop  offset="0.9966" style="stop-color:#075A5C"/>
				</linearGradient>
				<path class="st9" d="M575.92,612.33c-4.34-2.78-9.61-6.02-7.14-10.64c1.39-2.61,7.24,2.3,10.04,0.52
					c4.8-3.05-7.25-8.83-5.78-13.82c3.59-12.22,12.44,6.46,16.06,4.26c6.83-4.14-3.74-13.61-2.97-20.42
					c1-8.89,7.77-11.31,12.56-2.29c1.37,2.57,1.67,11.99,7.16,11.53c3.16-0.27,1.76-5.59,1.32-7.01
					c-1.77-5.77-11.77-16.16-4.53-22.19c8.91-7.42,11.98,6.9,14.32,10.98c6.99,12.19,8.28,1.34,5.2-5.33
					c-1.7-3.68-8.49-14.82-0.29-17.09c10.78-2.99,9.02,19.37,16.79,14.13c9.36-6.31-16.78-18.95-8.56-24.68
					c7.02-4.9,15.69,14.25,19.53,12.81c10.99-4.11-10.16-19.72-5.08-25.12c4.64-4.93,8.22,7.54,14.03,6.19
					c8.6-2.01-7.89-10.42-4.94-16.53c3.49-7.23,12.44,5.16,16.4,4.26c5.6-1.26-8.78-9.48-5.31-13.81c3.23-4.02,7.84,6.5,10.51,6.03
					c5.43-0.97-7.33-7.56-3.98-11.1c2.42-2.56,6.14,2,8.84,2.01c2.93,0,2.82-10.96,7.89-9.98c0.2,0.04,0.38,0.08,0.56,0.13
					C681.7,512.45,657.89,569.54,575.92,612.33z"/>
				
					<linearGradient id="SVGID_10_" gradientUnits="userSpaceOnUse" x1="7337.2827" y1="779.9799" x2="7448.0825" y2="840.0001" gradientTransform="matrix(-0.9924 -0.123 -0.123 0.9924 8089.5439 660.6501)">
					<stop  offset="0" style="stop-color:#008982"/>
					<stop  offset="0.9966" style="stop-color:#075A5C"/>
				</linearGradient>
				<path class="st10" d="M688.55,485.15c5.78,1.63-3.61,8.8-1.48,10.85c3.25,3.13,6.71-3.63,10.17-0.72
					c3.79,3.19-11.71,10.43-11.03,12.85c1.25,4.45,15.36-4.45,17.75-0.68c3.73,5.9-13.17,8.21-14.73,13.84
					c-0.68,2.46,15.9,2.03,16.87,5.8c1.78,6.91-26.28,2.45-28.78,6.34c-3.41,5.28,22.94,2.47,20.99,10.21
					c-2.06,8.19-28.92,0.73-31.23,7.27c-2.83,8.02,21.88,1.57,20.55,10.59c-1.93,13.06-27.68-3.02-37.38,4.37
					c2.08,8.08,28.9,4.47,22.37,14.53c-5.91,9.1-33.52-9.01-36.6,0.04c-2.57,7.56,21.48,5.73,22.7,12.23
					c1.85,9.83-20.66,3.63-25.96,2.51c-7.23-1.52-17.47-0.48-8.56,6.29c4.07,3.09,21.62,4.71,14.95,11.84
					c-7.07,7.55-21.21-3.92-27.93-4.99c-9.86-1.57-3.14,4.47,0.9,8.47c3.84,3.8,7.88,7.67,2.44,9.88
					c-7.2,2.92-14.45-13.13-18.72-9.26c-4.39,3.97,0.25,8.42-6.78,6.85c-6.12-1.37-6.94-5.92-9.82-9.62
					c-0.89-0.74-2.07-1.51-3.31-2.3C657.89,569.54,681.7,512.45,688.55,485.15z"/>
			</g>
		</g>
		<g class="st6">
			<g>
				
					<linearGradient id="SVGID_11_" gradientUnits="userSpaceOnUse" x1="614.623" y1="-440.2618" x2="584.0782" y2="-517.4157" gradientTransform="matrix(0.5613 0.8276 -0.8276 0.5613 -348.071 283.6245)">
					<stop  offset="0" style="stop-color:#008982"/>
					<stop  offset="0.9966" style="stop-color:#075A5C"/>
				</linearGradient>
				<path class="st11" d="M364.01,542.77c3.6,1.38,7.87,3.09,10.68,0.27c1.59-1.59-4.18-3.06-3.7-5.13
					c0.81-3.53,9.29,0.92,12.72-1.49c8.39-5.91-9.14-4.44-8.61-7.07c0.99-4.96,11.88-2.5,16.96-5.14c6.63-3.45,6.3-7.81-2.33-7.38
					c-2.46,0.12-9.94,3.06-11.38,0.01c-0.83-1.76,3.8-2.76,5.06-3c5.1-0.96,16.52,0.9,18.86-4.9c2.88-7.14-9.34-4.05-13.3-3.95
					c-11.84,0.32-3.77-3.93,2.47-4.49c3.43-0.31,14.39-0.39,13.48-5.46c-1.2-6.67-18.13,1.61-16.58-4.21
					c1.87-7.01,20.35,2.62,22.14-3.6c1.53-5.31-16.31-3.59-16.45-6.09c-0.39-7.15,18.77-1.12,21.33-5.58
					c2.34-4.07-8.61-1.85-9.45-5.36c-1.25-5.19,10.75,0.74,14.56-2.83c4.51-4.22-8.12-4.87-8.73-7.25
					c-0.85-3.37,10.31,1.52,12.55-1.74c2.09-3.02-7.67-2-8.17-3.56c-1.03-3.18,8.33,1.38,10-1.55c1.21-2.12-3.58-2.58-4.48-4
					c-0.97-1.54,7.65-5.08,5.22-7.44c-0.1-0.09-0.19-0.17-0.29-0.25C407.45,454.17,370.58,485.48,364.01,542.77z"/>
				
					<linearGradient id="SVGID_12_" gradientUnits="userSpaceOnUse" x1="541.1719" y1="-511.8725" x2="609.7654" y2="-474.7154" gradientTransform="matrix(0.5613 0.8276 -0.8276 0.5613 -348.071 283.6245)">
					<stop  offset="0" style="stop-color:#008982"/>
					<stop  offset="0.9966" style="stop-color:#075A5C"/>
				</linearGradient>
				<path class="st12" d="M426.57,441.59c-3.18-2.51-5.7,4.8-8.01,4.35c-3.52-0.69,0.64-4.73-2.77-5.6
					c-3.74-0.95-4.32,9.6-6.44,10.04c-3.89,0.81-1.56-9.56-5.3-9.58c-5.85-0.03-2.1,9.64-5.99,12.31c-1.7,1.17-6.81-7.72-10.08-6.99
					c-6,1.33,6.71,14.66,4.49,17.26c-3.02,3.53-9.47-11.28-14.89-7.71c-5.74,3.78,8.93,15.49,4.57,18.86
					c-5.35,4.13-8.42-11.03-15.05-7.36c-9.6,5.31,11.46,13.61,8.86,21.15c-7.01,1.56-13-13.77-18.72-7.03
					c-5.18,6.11,18.06,14.72,11.99,19.31c-5.07,3.84-11.55-9.44-17.03-7.96c-8.3,2.25,3.95,12.09,6.56,14.51
					c3.57,3.31,6.12,9.05-2.11,6.58c-3.76-1.13-10.79-9.85-14.18-3.99c-3.59,6.21,10.04,9.9,13.08,13.09
					c4.47,4.69-2.47,3.13-6.93,2.31c-4.24-0.78-8.6-1.64-8.53,1.96c0.08,4.76,15.02,3.31,13.4,6.83c-1.66,3.62-6.68,2.64-3.13,5.83
					c3.08,2.78,6.92,1.72,10.76,2.02c0.87,0.23,1.86,0.59,2.89,0.99C370.58,485.48,407.45,454.17,426.57,441.59z"/>
			</g>
			<g>
				
					<linearGradient id="SVGID_13_" gradientUnits="userSpaceOnUse" x1="1664.0121" y1="983.4943" x2="1724.0571" y2="1011.9647" gradientTransform="matrix(0.8884 0.459 -0.459 0.8884 -689.3827 -1184.7567)">
					<stop  offset="0" style="stop-color:#009891"/>
					<stop  offset="0.9966" style="stop-color:#08696B"/>
				</linearGradient>
				<path class="st13" d="M376.14,425.21c-3.89,1.48-7.24,3.4-10.4,5.44c-3.19,2.03-6.07,4.26-8.78,6.6
					c-5.38,4.69-10,9.87-13.82,15.41c-7.67,11.06-12.4,23.54-13.75,36.5c-0.15,1.62-0.32,3.24-0.36,4.87
					c-0.02,1.63-0.07,3.26-0.04,4.9c0.11,1.64,0.19,3.28,0.34,4.91c0.06,0.82,0.17,1.63,0.29,2.45c0.11,0.82,0.25,1.63,0.39,2.45
					l0.43,2.44c0.16,0.81,0.4,1.62,0.6,2.43c0.41,1.62,0.85,3.22,1.37,4.82c0.56,1.59,1.18,3.18,1.79,4.74
					c0.6,1.57,1.41,3.11,2.19,4.64c1.47,3.07,3.46,6.01,5.44,8.86c1.05,1.42,2.22,2.79,3.36,4.15c0.59,0.67,1.15,1.35,1.76,2.01
					c0.65,0.64,1.29,1.29,1.95,1.92c1.33,1.26,2.66,2.5,4.06,3.68c1.48,1.16,2.99,2.28,4.56,3.34c0.79,0.53,1.52,1.08,2.36,1.57
					c0.86,0.49,1.7,0.97,2.56,1.44c1.76,0.92,3.49,1.81,5.41,2.57C324.83,494.91,376.14,425.21,376.14,425.21z"/>
				
					<linearGradient id="SVGID_14_" gradientUnits="userSpaceOnUse" x1="1703.5583" y1="1015.067" x2="1734.6844" y2="968.3505" gradientTransform="matrix(0.8884 0.459 -0.459 0.8884 -689.3827 -1184.7567)">
					<stop  offset="0" style="stop-color:#009891"/>
					<stop  offset="0.9966" style="stop-color:#08696B"/>
				</linearGradient>
				<path class="st14" d="M368.48,549.9l0.18-2.36c0.13-1.56,0.2-3.07,0.24-4.54c0.12-1.5,0.24-2.96,0.31-4.39l0.09-2.12
					c0.08-0.72,0.12-1.41,0.18-2.11c0.11-1.4,0.18-2.76,0.25-4.1c0.31-2.73,0.36-5.34,0.65-7.95c0.16-2.58,0.48-5.15,0.63-7.66
					c0.31-2.54,0.42-5.02,0.72-7.52l0.7-7.45l0.4-3.73c0.05-1.24,0.25-2.49,0.38-3.74c0.96-9.99,2.14-20.18,2.84-31.08
					c0.38-5.45,0.62-11.08,0.71-16.99c0.04-2.96,0.03-5.98-0.07-9.12c-0.07-3.13-0.22-6.34-0.57-9.83c0,0-51.3,69.7-8.28,132.14
					c0.29-1.79,0.39-3.44,0.51-5.07L368.48,549.9z"/>
			</g>
			<g>
				
					<linearGradient id="SVGID_15_" gradientUnits="userSpaceOnUse" x1="1755.1919" y1="655.8206" x2="1712.8947" y2="548.9807" gradientTransform="matrix(0.9702 0.2423 -0.2423 0.9702 -1206.4016 -500.488)">
					<stop  offset="0" style="stop-color:#008982"/>
					<stop  offset="0.9966" style="stop-color:#075A5C"/>
				</linearGradient>
				<path class="st15" d="M347.49,554.84c5.52-1.37,12.15-2.91,11.87-8.19c-0.16-2.98-8.13,0.01-10.05-2.6
					c-3.3-4.46,11.14-6.39,12-11.72c2.11-13.05-15.12,2.46-17.66-0.8c-4.77-6.16,9.9-12.15,12.28-19.04c3.1-9-2.4-13.46-11.22-6.13
					c-2.52,2.09-7.14,11.2-12.3,9.05c-2.97-1.24,0.85-6,1.93-7.26c4.38-5.09,18.93-12.15,14.62-20.28
					c-5.3-10.01-14.88,3.04-19.04,6.3c-12.43,9.75-8.7-1.25-2.63-6.82c3.35-3.07,15.11-11.86,8.13-16.62
					c-9.17-6.26-17.71,16.15-22.9,8.62c-6.25-9.06,25.1-13.33,19.7-21.48c-4.61-6.96-21.88,9.08-24.98,6.48
					c-8.86-7.42,18.99-16.13,16.5-22.98c-2.27-6.26-11.49,4.83-16.55,1.71c-7.48-4.62,12.5-7.74,12.42-14.63
					c-0.09-8.15-14.52,1.19-17.99-0.91c-4.9-2.97,12.94-6.55,11.53-11.85c-1.31-4.93-10.65,3.93-13.04,2.64
					c-4.86-2.62,10.63-5.13,8.99-9.62c-1.19-3.25-6.92,0.06-9.56-0.77c-2.87-0.9,2.28-11.58-3.12-12.2
					c-0.21-0.02-0.41-0.04-0.6-0.04C289.98,424.49,287.03,487.65,347.49,554.84z"/>
				
					<linearGradient id="SVGID_16_" gradientUnits="userSpaceOnUse" x1="1642.3695" y1="552.8362" x2="1749.8702" y2="611.0693" gradientTransform="matrix(0.9702 0.2423 -0.2423 0.9702 -1206.4016 -500.488)">
					<stop  offset="0" style="stop-color:#008982"/>
					<stop  offset="0.9966" style="stop-color:#075A5C"/>
				</linearGradient>
				<path class="st16" d="M295.82,395.69c-6.4-0.19,0.49,4.72-2.53,6.06c-4.61,2.05-5.89-0.63-10.61,1.15
					c-5.16,1.94,6.65,13.82,4.88,15.97c-3.26,3.97-12.97-9.1-17.04-6.15c-6.36,4.61,9.1,12.1,8.04,18.08
					c-0.46,2.61-16.47-2.93-19.15,0.45c-4.91,6.2,24.56,10.53,25.22,15.1c0.9,6.21-23.56-4.68-25.21,3.49
					c-1.75,8.65,27.94,9.66,27.19,16.77c-0.92,8.72-22.11-5.24-24.95,3.99c-4.12,13.37,28.45,5.61,34.53,15.84
					c-5.75,7.26-30.3-4.57-28.54,7.28c1.6,10.72,36.9,1.57,35.75,11.36c-0.96,8.18-23.63-1.04-27.81,4.93
					c-6.33,9.03,18.53,9.94,24.22,10.48c7.76,0.75,17.3,4.93,5.48,8.8c-5.4,1.77-23.29-2.09-20.05,6.94
					c3.44,9.57,22.53,2.73,29.59,3.77c10.36,1.52,1.02,5.35-4.77,8c-5.5,2.53-11.23,5.06-6.92,8.9c5.7,5.08,20.15-8.36,22.56-3.26
					c2.47,5.23-4.11,8.15,3.49,8.79c6.61,0.55,9.5-3.64,14.01-6.36c1.21-0.45,2.71-0.83,4.29-1.23
					C287.03,487.65,289.98,424.49,295.82,395.69z"/>
			</g>
			<g>
				
					<linearGradient id="SVGID_17_" gradientUnits="userSpaceOnUse" x1="2022.0095" y1="1016.8975" x2="2046.2723" y2="971.8453" gradientTransform="matrix(0.7978 -0.6029 0.6029 0.7978 -1941.6722 948.469)">
					<stop  offset="0" style="stop-color:#009891"/>
					<stop  offset="0.9966" style="stop-color:#08696B"/>
				</linearGradient>
				<path class="st17" d="M319.37,535.2c-0.9-0.97-1.82-1.87-2.73-2.78l-2.75-2.63c-7.32-6.86-14.78-12.62-22.96-17.86
					c-8.17-5.24-16.96-9.96-27.19-14.13c-5.09-2.1-10.57-4.05-16.56-5.86c-3.01-0.9-6.15-1.75-9.49-2.56
					c-3.34-0.82-6.81-1.59-10.81-2.25c0,0,40.8,51.05,109.43,68.56c-1.9-3.04-3.9-5.44-5.79-7.87c-0.93-1.24-1.91-2.31-2.84-3.43
					c-0.93-1.14-1.86-2.21-2.79-3.26C323.02,539.08,321.23,537.02,319.37,535.2z"/>
				
					<linearGradient id="SVGID_18_" gradientUnits="userSpaceOnUse" x1="1985.3049" y1="976.8506" x2="2036.9954" y2="1003.4225" gradientTransform="matrix(0.7978 -0.6029 0.6029 0.7978 -1941.6722 948.469)">
					<stop  offset="0" style="stop-color:#009891"/>
					<stop  offset="0.9966" style="stop-color:#08696B"/>
				</linearGradient>
				<path class="st18" d="M226.88,487.12c-0.74,3.31-0.74,6.4-0.54,9.38c0.22,2.99,0.7,5.88,1.43,8.66
					c1.47,5.56,3.76,10.76,6.73,15.58c5.93,9.65,14.41,17.88,24.59,24.48c10.19,6.57,22.16,11.53,35.35,13.82
					c3.25,0.62,6.68,0.95,10.06,1.21c3.46,0.15,6.87,0.27,10.41,0.01c1.76-0.12,3.51-0.25,5.28-0.48c1.8-0.28,3.55-0.51,5.34-0.89
					c0.9-0.19,1.76-0.33,2.66-0.57l2.69-0.73c1.81-0.56,3.58-1.11,5.41-1.9C267.69,538.17,226.88,487.12,226.88,487.12z"/>
			</g>
		</g>
		<g class="st6">
			<g>
				
					<linearGradient id="SVGID_19_" gradientUnits="userSpaceOnUse" x1="1744.8109" y1="1103.939" x2="1863.991" y2="1160.4482" gradientTransform="matrix(0.9366 0.3503 -0.3503 0.9366 556.3913 -1095.007)">
					<stop  offset="0" style="stop-color:#009891"/>
					<stop  offset="0.9966" style="stop-color:#08696B"/>
				</linearGradient>
				<path class="st19" d="M1870.24,490c-7.08,3.59-13,7.93-18.51,12.45c-5.58,4.52-10.49,9.36-15.07,14.37
					c-9.05,10.06-16.5,20.91-22.31,32.3c-11.66,22.76-17.28,47.69-16.24,72.93c0.16,3.15,0.29,6.3,0.68,9.46
					c0.43,3.15,0.78,6.3,1.3,9.45c0.67,3.14,1.28,6.28,2.03,9.4c0.35,1.56,0.78,3.12,1.26,4.67c0.44,1.56,0.94,3.1,1.45,4.65
					l1.51,4.62c0.54,1.53,1.23,3.05,1.84,4.57c1.25,3.04,2.55,6.05,3.99,9.03c1.53,2.97,3.16,5.9,4.78,8.8
					c1.6,2.91,3.6,5.73,5.52,8.52c3.69,5.63,8.36,10.92,12.98,16.05c2.41,2.53,5.06,4.96,7.64,7.35c1.32,1.19,2.6,2.38,3.95,3.53
					c1.44,1.12,2.84,2.24,4.3,3.33c2.91,2.18,5.82,4.31,8.86,6.32c3.17,1.95,6.39,3.82,9.72,5.57c1.68,0.87,3.23,1.79,4.98,2.58
					c1.79,0.77,3.54,1.55,5.33,2.29c3.65,1.43,7.23,2.83,11.15,3.93C1790.96,633.99,1870.24,490,1870.24,490z"/>
				
					<linearGradient id="SVGID_20_" gradientUnits="userSpaceOnUse" x1="1824.2161" y1="1165.3224" x2="1882.2892" y2="1078.1619" gradientTransform="matrix(0.9366 0.3503 -0.3503 0.9366 556.3913 -1095.007)">
					<stop  offset="0" style="stop-color:#009891"/>
					<stop  offset="0.9966" style="stop-color:#08696B"/>
				</linearGradient>
				<path class="st20" d="M1890.49,731.69l-0.32-4.58c-0.18-3.03-0.47-5.95-0.81-8.78c-0.19-2.9-0.38-5.75-0.64-8.52l-0.43-4.1
					c-0.05-1.39-0.17-2.75-0.24-4.11c-0.18-2.71-0.43-5.35-0.68-7.95c-0.17-5.33-0.8-10.35-0.97-15.44
					c-0.42-5.01-0.53-10.02-0.93-14.89c-0.12-4.95-0.6-9.75-0.72-14.62l-0.73-14.49l-0.28-7.26c-0.25-2.4-0.22-4.85-0.31-7.28
					c-0.96-19.43-1.54-39.28-3.25-60.42c-0.8-10.57-1.91-21.47-3.41-32.88c-0.76-5.7-1.62-11.53-2.69-17.56
					c-1.02-6.02-2.21-12.18-3.85-18.83c0,0-79.28,143.99,21.14,256.18c0.05-3.49-0.22-6.7-0.43-9.87L1890.49,731.69z"/>
			</g>
			<g>
				
					<linearGradient id="SVGID_21_" gradientUnits="userSpaceOnUse" x1="1930.7964" y1="1095.1659" x2="1846.5337" y2="882.3243" gradientTransform="matrix(0.9996 0.0296 -0.0296 0.9996 -30.017 -387.0946)">
					<stop  offset="0" style="stop-color:#008982"/>
					<stop  offset="0.9966" style="stop-color:#075A5C"/>
				</linearGradient>
				<path class="st21" d="M1888.72,746.82c9.78-4.48,21.57-9.64,18.37-19.57c-1.81-5.6-15.41,2.77-20.37-1.51
					c-8.5-7.34,17.89-15.9,16.83-26.3c-2.6-25.46-27.43,9.81-33.88,4.48c-12.16-10.05,12.64-26.4,13.67-40.27
					c1.34-18.11-11.34-24.69-24.37-7.8c-3.72,4.82-7.88,23.67-18.74,21.34c-6.25-1.34-1.42-11.67,0-14.42
					c5.73-11.13,29.75-29.48,17.48-43.42c-15.11-17.17-26.68,10.82-32.92,18.42c-18.64,22.71-17.13,0.58-8.43-12.03
					c4.8-6.95,22.66-27.62,7.03-34.27c-20.54-8.74-25.43,36.63-39.07,24.12c-16.43-15.06,40.86-33.8,26.51-47.42
					c-12.25-11.63-36.89,24.65-44.08,20.78c-20.54-11.05,27.86-37.03,19.68-49.18c-7.47-11.09-19.35,13.07-30.52,8.86
					c-16.52-6.22,19.79-18.92,16.15-31.96c-4.29-15.42-26.93,7.2-34.56,4.4c-10.78-3.96,21.22-16.81,15.87-26.39
					c-4.97-8.9-18.2,11.08-23.39,9.44c-10.54-3.32,17.57-13.34,12.19-21.29c-3.9-5.76-13.08,2.47-18.51,1.79
					c-5.89-0.74-1.52-22.73-12.08-22.06c-0.42,0.03-0.8,0.07-1.17,0.12C1713.88,519.26,1740.17,640.01,1888.72,746.82z"/>
				
					<linearGradient id="SVGID_22_" gradientUnits="userSpaceOnUse" x1="1704.3196" y1="886.9787" x2="1922.7474" y2="1005.3011" gradientTransform="matrix(0.9996 0.0296 -0.0296 0.9996 -30.017 -387.0946)">
					<stop  offset="0" style="stop-color:#008982"/>
					<stop  offset="0.9966" style="stop-color:#075A5C"/>
				</linearGradient>
				<path class="st22" d="M1710.41,462.67c-12.23,1.81,3.94,18.6-1.11,22.18c-7.71,5.46-12.11-9.01-20.16-4.04
					c-8.81,5.44,19.59,23.94,17.32,28.62c-4.18,8.63-29.18-12.85-35.41-5.87c-9.73,10.91,23.36,19.84,24.37,31.54
					c0.44,5.11-32.71,0.04-36.08,7.36c-6.18,13.43,51.87,11.61,55.44,20.05c4.85,11.48-47.02-0.86-46.02,15.19
					c1.06,16.99,57.84,8.81,60.01,22.55c2.66,16.83-44.56-2.41-45.29,16.06c-1.06,26.74,56.76,0.96,73.45,18.28
					c-7.24,15.71-59.76,1.64-50.43,23.5c8.44,19.79,70.75-9.57,73.51,9.38c2.31,15.84-45.32,6.06-50.23,18.79
					c-7.43,19.28,40.14,12.54,51.2,11.64c15.1-1.22,35.28,3.47,14.82,14.81c-9.35,5.18-45.21,3.96-34.5,19.98
					c11.35,16.97,44.1-2.49,57.99-2.92c20.41-0.64,4.63,9.79-5,16.8c-9.15,6.66-18.73,13.41-8.63,19.22
					c13.37,7.69,33.98-22.7,41.11-13.85c7.32,9.08-3.68,16.86,11.05,15.48c12.82-1.2,16.18-10.13,23.36-16.83
					c2.07-1.27,4.72-2.5,7.52-3.78C1740.17,640.01,1713.88,519.26,1710.41,462.67z"/>
			</g>
			<g>
				
					<linearGradient id="SVGID_23_" gradientUnits="userSpaceOnUse" x1="2074.7769" y1="776.6355" x2="2115.8176" y2="700.4292" gradientTransform="matrix(0.8501 -0.5266 0.5266 0.8501 -410.9156 1154.0895)">
					<stop  offset="0" style="stop-color:#009891"/>
					<stop  offset="0.9966" style="stop-color:#08696B"/>
				</linearGradient>
				<path class="st23" d="M1822.21,717.52c-1.36-1.79-2.77-3.47-4.15-5.16l-4.22-4.89c-11.27-12.78-23-23.69-36.08-33.78
					c-13.06-10.09-27.28-19.38-44.08-27.92c-8.37-4.29-17.43-8.36-27.38-12.27c-5.01-1.94-10.26-3.83-15.85-5.66
					c-5.59-1.85-11.43-3.63-18.19-5.29c0,0,60.34,93.3,175.15,132.48c-2.68-5.49-5.65-9.88-8.43-14.31
					c-1.37-2.25-2.85-4.23-4.23-6.29c-1.37-2.08-2.77-4.06-4.16-5.98C1827.74,724.7,1825.05,720.9,1822.21,717.52z"/>
				
					<linearGradient id="SVGID_24_" gradientUnits="userSpaceOnUse" x1="2011.3502" y1="708.436" x2="2099.9199" y2="753.9659" gradientTransform="matrix(0.8501 -0.5266 0.5266 0.8501 -410.9156 1154.0895)">
					<stop  offset="0" style="stop-color:#009891"/>
					<stop  offset="0.9966" style="stop-color:#08696B"/>
				</linearGradient>
				<path class="st24" d="M1672.26,622.55c-1.92,5.61-2.53,10.92-2.75,16.09c-0.21,5.17,0.06,10.23,0.78,15.11
					c1.45,9.76,4.38,19.04,8.56,27.72c8.33,17.41,21.33,32.7,37.59,45.4c16.27,12.66,35.93,22.77,58.21,28.45
					c5.48,1.5,11.32,2.51,17.09,3.4c5.93,0.72,11.78,1.36,17.93,1.38c3.06,0.03,6.09,0.03,9.19-0.13c3.15-0.25,6.21-0.4,9.38-0.84
					c1.58-0.21,3.1-0.34,4.7-0.63l4.78-0.91c3.22-0.72,6.39-1.45,9.69-2.56C1732.59,715.85,1672.26,622.55,1672.26,622.55z"/>
			</g>
		</g>
		
			<linearGradient id="SVGID_25_" gradientUnits="userSpaceOnUse" x1="5069.5122" y1="2151.6252" x2="5202.5576" y2="1784.5808" gradientTransform="matrix(-0.9275 0.3739 -0.3739 -0.9275 5883.9531 595.2774)">
			<stop  offset="0" style="stop-color:#00895C"/>
			<stop  offset="0.9966" style="stop-color:#14CC9C"/>
		</linearGradient>
		<path class="st25" d="M801.88,703.73c0,0-167.41-111.39-216.75-99.84c-49.34,11.55-75.15,14.97-88.34,4.52
			c-10.66-8.45-24.83-13.93-59.14-3.01c-34.31,10.92-62.9-15.29-58.65-44.99c6.79-47.43,3.38-118.87-68.21-115.77
			c-115.03,4.99-84.76,90.07-250.42,58.63S-8.5,691.8-8.5,691.8l52.29,127.85L801.88,703.73z"/>
	</g>
	<g>
		<g>
			<path class="st26" d="M432.65,664.18"/>
			<path class="st26" d="M421.28,663.87"/>
		</g>
	</g>
	<path class="st27" d="M1648.04,70.97c1.71-8,10.2-14.09,20.44-14.09c1.56,0,3.08,0.15,4.55,0.42c3.69-11.5,16.41-19.99,31.58-19.99
		c2.35,0,4.64,0.21,6.85,0.6c7.22-7.07,18.06-11.57,30.18-11.57c17.58,0,32.45,9.46,37.52,22.5c1.88-0.35,3.83-0.56,5.84-0.56
		c14.37,0,26.01,9.56,26.01,21.35c0,0.45-0.05,0.89-0.08,1.33H1648.04z"/>
	<path class="st27" d="M1415.35,44.48c1.62-4.06,6.27-7,11.76-7c0.72,0,1.42,0.06,2.1,0.16c4.59-8,14.47-13.55,25.96-13.55
		c10.22,0,19.17,4.4,24.25,11c2.04-0.73,4.28-1.14,6.65-1.14c7.89,0,14.48,4.5,16.22,10.54H1415.35z"/>
	
		<radialGradient id="SVGID_26_" cx="919.3594" cy="192.5453" r="58.2358" gradientTransform="matrix(2.9924 0 0 2.456 -1831.0094 -459.0377)" gradientUnits="userSpaceOnUse">
		<stop  offset="0" style="stop-color:#FFAA11"/>
		<stop  offset="0.9966" style="stop-color:#FFE2B3"/>
	</radialGradient>
	<ellipse class="st28" cx="977.93" cy="100.63" rx="66.33" ry="54.44"/>
	
		<linearGradient id="SVGID_27_" gradientUnits="userSpaceOnUse" x1="967.6391" y1="80.9714" x2="896.2828" y2="211.5318" gradientTransform="matrix(-1 0 0 1 2009.671 0)">
		<stop  offset="0" style="stop-color:#DBFDFC"/>
		<stop  offset="0.9966" style="stop-color:#ADE1F9"/>
	</linearGradient>
	<path class="st29" d="M1133.04,128.53c-1.37-6.41-8.18-11.29-16.39-11.29c-1.25,0-2.47,0.12-3.64,0.34
		c-2.96-9.22-13.16-16.03-25.32-16.03c-1.89,0-3.72,0.17-5.49,0.48c-5.79-5.67-14.48-9.28-24.19-9.28
		c-14.09,0-26.02,7.58-30.08,18.04c-1.51-0.28-3.07-0.45-4.68-0.45c-11.52,0-20.85,7.66-20.85,17.12c0,0.36,0.04,0.71,0.07,1.07
		H1133.04z"/>
</g>
<ellipse class="st0" cx="1555.5" cy="616.61" rx="119.5" ry="25.98"/>
<g>
	<path class="st30" d="M1517.01,409.32c-9.69,3.88-18.07,10.89-26.83,16.04c-9.58,5.63-19.52,10.83-28.94,16.69
		c-22.63,14.06-47.19,27.44-72.13,38.64c-10.89,4.89-22.14,9.26-33.01,14.18c-9.9,4.48-19.86,9.05-30.67,12.04
		c-12.35,3.41-24.54,7.21-36.85,10.79c-13.5,3.92-27.63,5.04-41.26,8.52c-12.39,3.16-24.03,6.07-36.86,8.05
		c-7.74,1.19-15.45,2.56-23.21,3.73c-4.85,0.73-8.92,1.8-13.52,3.11c-3.55,1.02-8.88,1.32-11.84,3.07c-1.2,0.71-2.73-0.91-1.59-1.69
		c3.29-2.27,8.5-2.66,12.42-3.79c6.91-1.99,13.54-3.1,20.68-4.28c12.86-2.13,26.79-3.1,39.22-6.67c13.67-3.93,27.14-5.95,41.12-8.94
		c12.93-2.76,25.64-6.81,38.14-10.68c50.75-15.71,97.61-39.13,142.03-64.53c11.55-6.61,22.66-13.62,34.61-19.83
		c9.23-4.8,17.87-11.79,28.15-15.04C1517.12,408.59,1517.41,409.16,1517.01,409.32L1517.01,409.32z"/>
	<path class="st31" d="M1684.81,611.24c-6.3,0.89-12.45,2.5-18.21,4.76c-0.66-0.9-1.31-1.8-1.97-2.71
		c-14.84,7.75-33.79,7.85-51.13,5.44c-2.79-0.39-6.32-1.6-6.02-3.91c0.12-0.93,0.9-1.71,1.78-2.3c3.75-2.5,9.09-2.19,13.86-2.79
		c11.7-1.48,21.61-9.82,23.12-19.46c8.05,1.58,19.38,1.37,26.77,4.26C1676.61,595.94,1686.49,611,1684.81,611.24z"/>
	<path class="st31" d="M1500.7,617.25c-7.94,0.43-16.01-1-23.02-4.07c0.62-0.75,1.02-1.62,1.15-2.51
		c-19.12-2.32-37.37-9.34-51.78-19.91c1.86-2.53,6.04-3.24,9.59-2.76c3.55,0.48,6.82,1.88,10.31,2.6
		c12.21,2.53,24.42-3.35,34.98-8.97c5.47,4.77,16.75,11.19,19.81,17.2C1502.69,600.73,1501.61,617.21,1500.7,617.25z"/>
	<path class="st32" d="M1591.25,284.54c-6.34,6.2-15.08,10.47-24.17,13.63c-3.78,1.32-7.74,2.48-11.85,2.56
		c-4.11,0.08-8.43-1.07-11.02-3.69c-2.71-2.75-3.1-6.54-3.05-10.08c0.08-5.52,0.93-11.03,2.54-16.4c4.03-13.43,19.01-31,39.02-25.58
		C1603.33,250.56,1603,273.06,1591.25,284.54z"/>
	<path class="st32" d="M1589.25,301.69c2.61,6.45,6.44,13.69,2.45,19.65c-3.41,5.09-12.34,6.87-18.41,3.89
		c-5.99-2.95-8.35-8.99-10.24-14.51c-1.07-3.14-2.15-6.29-3.22-9.43c-1.25-3.67-2.51-7.37-2.77-11.17
		c-0.32-4.71,0.95-9.49,3.62-13.67c4.33-6.76,18.71-7.05,23.19-0.25C1588.36,283.02,1586.2,294.12,1589.25,301.69z"/>
	<path class="st33" d="M1551.12,415.68c0.89,12.83-6.61,24.91-13.27,36.54c-12.98,22.68-23.44,46.34-31.22,70.57
		c-2.77,8.63-5.24,17.42-10.26,25.34c-4.42,6.96-10.76,13.15-13.69,20.62c-2.23,5.68-3.94,13.34-10.52,15.87
		c5.97,2.34,10.11,6.88,14.68,10.8c4.58,3.92,9.64,8.21,16.23,7.77c28.51-40.33,35.64-89.74,71.76-125.73
		c12.06,15.8,16.64,34.72,27.73,50.99c2.52,3.7,5.37,7.25,8.21,10.8c14.02,17.54,28.17,36.03,31.11,56.87
		c0.1,0.7,0.21,1.44,0.75,1.97c0.58,0.57,1.51,0.78,2.38,0.94c9.8,1.87,20.08,2.06,29.97,0.57c1.37-0.21,2.9-0.55,3.53-1.57
		c0.52-0.84,0.23-1.86-0.08-2.77c-6.78-19.86-15.89-39.17-27.18-57.6c-6.11-9.97-12.87-19.71-17.91-30.08
		c-5.27-10.86-8.59-22.27-11.89-33.64c-1.25-4.32-2.52-8.69-2.56-13.13c-0.12-11.35,7.58-23.03,2.49-33.59
		C1597.35,427.56,1573.77,422.29,1551.12,415.68z"/>
	<path class="st34" d="M1582.7,277.75c-1.11,2.35-3.6,4.12-6.37,5.2c7.43,2.18,4.39,8.52,11.34,11.65
		c6.12-5.13,12.25-8.84,15.55-15.48c2.44-4.92,3.11-10.28,3.76-15.57c0.62-5.07,1.1-10.61-2.42-14.81c-3.1-3.7-8.59-5.45-13.84-6.71
		c-11.07-2.65-22.59-4.04-34.11-4.09c-3.8-0.02-8.05,0.27-10.56,2.61c-1.56,1.45-2.14,3.47-2.11,5.4
		c0.09,5.9,6.03,11.37,13.16,12.12c3.38,0.36,6.81-0.23,10.21-0.06c3.4,0.17,7.13,1.42,8.3,4.04c-0.45,5.38-4.59,7.72-4.59,7.72
		s3.12,2.27,2.94,3.47C1579.11,268.18,1585.22,272.78,1582.7,277.75z"/>
	<path class="st32" d="M1517.68,396.94c-0.91,0.16-1.82,0.38-2.59,0.81c-1.68,0.94-2.35,2.67-2.92,4.27
		c-0.69,1.96-1.32,4.24,0.15,5.89c0.52,0.58,1.24,1,1.95,1.41c3.11,1.81,6.21,3.61,9.32,5.42c2.03,1.18,4.26,2.41,6.74,2.31
		c2.17-0.09,4.05-1.17,5.96-2.02c3.97-1.78,8.53-2.65,13.05-2.49c-0.81-5.23-1.14-11.06-7.15-13.64
		C1536.82,396.58,1523.55,395.94,1517.68,396.94z"/>
	<path class="st34" d="M1153.35,541.79c-5.39-3.42-9.96-7.63-15.05-11.36c-5.08-3.73-10.9-7.06-17.57-8.19
		c-6.68-1.13-14.35,0.37-18.47,4.83c-1.85,2-2.88,4.43-4.66,6.47c-2.65,3.03-6.97,5.02-11.49,5.32c-2.07,1.32-1.03,3.49,0.32,5.32
		c1.35,1.84,3.68,3.01,5.93,4.12c3.42,1.69,6.85,3.38,10.27,5.07c-2.46-0.03-4.94,0.45-7.11,1.4c1.5,2.31,4.91,3.27,8.06,3.65
		c3.15,0.38,6.49,0.41,9.28,1.68c2.99,1.36,4.84,3.9,7.31,5.84c2.47,1.93,6.47,3.24,9.21,1.58c-1.86,3.26-2.45,7.68-2.59,11.28
		c-0.13,3.24,0.46,6.56-0.61,9.69c-0.92,2.67-2.98,4.97-5.12,7.12c-3.6,3.61-7.56,6.99-11.82,10.08c-0.89,0.64-1.82,1.32-2.24,2.23
		c-1.01,2.2,1.43,4.42,3.82,5.72c3.31,1.79,7.01,3.1,10.88,3.85c1.1,0.21,2.27,0.37,3.32,0.04c1.19-0.37,1.98-1.3,2.69-2.17
		c5.44-6.69,11.33-12.57,16.77-19.26c0.98-1.2,3.99-2.78,4.05-4.23c4.41,1.96,10.9,3.43,17.17,4.81c6.27,1.38,12.84,3.5,16.33,7.99
		c3.03,3.9,3.14,8.78,4.01,13.34c0.17,0.89,0.41,1.84,1.18,2.48c0.54,0.45,1.28,0.71,2.02,0.88c5.66,1.32,11.89-1.67,14.58-5.96
		c2.68-4.3,2.36-9.5,0.64-14.11c-1.9-5.09-5.63-9.92-11.27-12.53c-0.16,0.52-0.32,1.03-0.48,1.55c9.82,0.74,19.81-2.41,29.05-5.25
		c-2.21,6.57-4.38,13.64-11.44,17.23c-2.97,1.51-7.12,3.08-6.69,5.93c0.24,1.56,1.89,2.69,3.45,3.61c3.77,2.24,8.16,4.39,12.77,3.86
		c4.56-0.52,8.02-3.52,11.1-6.33c6.46-5.91,6.42-10.56,11.86-20.84c1.26,3.56,6.43,5.62,9.97,7.93c3.54,2.31,4.65,4.57,7.21,7.64
		c2.55,3.06,3.36,6.61,3.64,10.31c0.26,3.54,8.41,2.07,11.7-0.22c3.29-2.29,4.92-5.77,6.42-9.09c0.67-1.47,1.34-3.03,1.03-4.58
		c-0.21-1.04-0.84-1.98-1.48-2.89c-5.07-7.22-10.25-13.42-12.11-21.61c-1.28-5.62-1.2-10.91-2.89-16.46
		c-1.1-3.64-3.06-7.51-1.31-10.97c1.92-3.81,5.17-6.84,6.19-10.87c0.18-0.71,0.33-1.48-0.03-2.15c-0.41-0.77-1.39-1.21-2.31-1.58
		c-5.27-2.16-10.7-4.06-16.24-5.69c-1.73-0.51-3.52-1-5.36-0.93c-1.68,0.07-3.29,0.6-4.77,1.27c-5.54,2.49-13.21,10.94-14.95,11.33
		c-18.55,4.23-38.1,4.13-57.36,4C1164.47,543.9,1157.86,544.64,1153.35,541.79z"/>
	<path class="st34" d="M1563.31,278.45c-1.9,2.17-3.89,4.42-6.75,5.69c-2.86,1.27-6.87,1.25-8.98-0.79
		c-0.87-0.84-1.34-1.92-2.22-2.76c-0.88-0.84-2.49-1.36-3.55-0.69c-0.54,0.34-0.8,0.9-1.02,1.42c-1.8,4.16-3.6,8.32-5.41,12.47
		c-0.93,2.14-1.77,4.75-0.01,6.5c0.85,0.84,2.15,1.29,3.42,1.63c4.34,1.17,8.99,1.54,13.52,1.07c3.06-0.32,6.74-0.42,8.59,1.6
		c1.93-2.03,4.82-3.68,7.34-5.22c2.52-1.53,4.92-3.58,5.25-6.14c0.39-3.03-2.19-5.76-2.8-8.77c-0.71-3.47,1.16-8.06,3.41-11.46
		c0.82-1.23-0.74-2.6-2.81-3.44C1568.38,272.3,1565.91,275.48,1563.31,278.45z"/>
	<path class="st35" d="M1584.18,297.14c-5.39,0.7-9.23,4.56-12.32,8.26c-21.08,25.27-31.95,56.17-30.54,86.78
		c-0.91,0.78-1.82,1.55-2.73,2.33c1.06,6.21,2.12,12.42,3.18,18.62c0.15,0.85,0.32,1.76,1.05,2.38c0.78,0.67,2.01,0.84,2.96,1.35
		c1.51,0.8,2.14,2.33,2.67,3.74c2.89,7.74,5.79,15.48,8.68,23.22c0.52,1.38,1.17,2.9,2.74,3.55c1.35,0.56,2.97,0.3,4.44,0
		c12.01-2.46,23.37-6.7,35.21-9.68c11.84-2.97,24.65-4.65,36.56-1.87c1.6-23.94-13.91-46.61-15.27-70.56
		c-0.6-10.62,1.57-21.49-1.74-31.78C1616.04,324.1,1599.32,295.18,1584.18,297.14z"/>
	<path class="st30" d="M1593.09,312.96c-10.14-4.41-18.54,3.62-20.24,11.03c-2.05,8.97,3.19,16.52,6.22,24.85
		c2.63,7.23,2.63,14.63,7.09,21.22c0.09,0.13-0.14,0.24-0.24,0.12c-2.79-3.24-3.69-4.85-4.69-9c-1.23-5.09-2.6-9.94-4.86-14.83
		c-2.36-5.09-5.89-9.88-6.27-15.39c-0.71-10.23,8.05-25.12,23.16-18.24C1593.44,312.82,1593.28,313.04,1593.09,312.96
		L1593.09,312.96z"/>
	<g>
		<path class="st30" d="M1577.38,377.65"/>
	</g>
	<path class="st30" d="M1586.86,373.84c1.01-2.17-6.44,3.03-3.93,1.5c-2.17,1.32-4.14,3.12-6.28,4.53
		c-2.49,1.63-4.97,3.15-7.98,4.16c-5.92,2-12.07,4.38-18.24,5.87c-0.17,0.04-0.29-0.18-0.12-0.24c2.05-0.82,3.56-2.07,5.5-2.98
		c2.92-1.35,6.51-2.19,9.52-3.43c6.87-2.83,14.19-5.97,19.23-11.05c0.16-0.16,0.53-0.24,0.77-0.17c1.59,0.49,1.5,0.42,2.52,1.57
		c0.35,0.39-0.38,0.79-0.79,0.5c-0.05-0.03-0.09-0.07-0.14-0.1C1586.87,373.97,1586.84,373.9,1586.86,373.84L1586.86,373.84z"/>
	<path class="st30" d="M1616.72,371.38c0.17,4.08,0.83,11.09-1.85,14.8c-3.36,4.64-14.12,6.61-19.53,9.67
		c-7.43,4.2-14.8,8.48-22.27,12.64c-5.51,3.06-12.27,7.41-19.13,7.86c-0.33,0.02-0.36-0.38-0.07-0.45
		c14.78-3.88,27.68-14.34,40.05-21.62c4.26-2.51,9.31-3.64,13.71-5.82c8.21-4.07,8.56-9.82,8.85-17.07
		C1616.49,371.25,1616.72,371.25,1616.72,371.38L1616.72,371.38z"/>
	<path class="st30" d="M1591.43,301.19c-1.44-3.34-15.57,7.69-16.61,9.06c-1.71,2.28-3.36,4.81-4.83,7.19
		c-3.74,6.02-6.85,12.33-10.44,18.43c-6.65,11.31-12.09,22.14-16.23,34.27c-0.02,0.07-0.15,0.05-0.15-0.02
		c0.74-14.73,11.37-29.15,18.58-42.19c5.55-10.04,12.67-28.42,29.8-27.37c0.16,0.01,0.27,0.1,0.29,0.23
		c0.01,0.12,0.02,0.23,0.03,0.35C1591.89,301.36,1591.51,301.38,1591.43,301.19L1591.43,301.19z"/>
	<path class="st30" d="M1592.79,400.26c-2.39,11.64,3.01,23.49,3.53,35.09c0,0.09-0.16,0.09-0.17,0
		c-1.44-11.52-6.73-23.49-3.6-35.15C1592.58,400.06,1592.82,400.12,1592.79,400.26L1592.79,400.26z"/>
	<path class="st36" d="M1660.6,597.49c-1.08-1.65-2.17-3.3-3.25-4.94c-0.29-0.1-0.54-0.33-0.42-0.61
		c1.86-4.39-2.48-11.71-4.54-15.87c-2.32-4.71-4.37-9.37-7.01-13.98c-2.82-4.93-5.36-9.95-8.32-14.83c-1.8-2.98-4.19-10.87-8.8-10.7
		c-0.45,0.02-0.81-0.27-0.95-0.6c-11.72-27.77-30.71-56.65-30.2-86.81c0-0.15,0.27-0.15,0.28,0c2.1,20.32,9.41,40.39,18.16,59.46
		c3.22,7.01,6.58,13.72,10.94,20.25c-5.69-8.51,1.76,3.35,2.16,3.8c1.37,1.55,2.47,1.63,3.13,2.36c0.47,0.52,0.94,0.94,1.6,1.72
		c1.49,1.74,2.18,5.75,3.25,7.84c2.13,4.14,4.5,8.2,6.65,12.34c3.59,6.91,7.57,13.64,10.92,20.64c1.94,4.06,2.66,9.46,4.56,13.14
		c1.6,3.1,4.77,3.52,2.44,7C1661.03,597.97,1660.45,597.78,1660.6,597.49L1660.6,597.49z"/>
	<path class="st36" d="M1559.12,465.48c-3.07,4.08-5.87,9.49-8.67,13.76c-3.51,5.34-7.38,10.46-10.75,15.84
		c-6.66,10.64-11.94,22.27-16,33.5c-3.75,10.37-5.95,21.48-11.13,31.44c-3.06,5.88-7.11,11.45-10.58,17.17
		c-2.21,3.65-5.02,7.91-10.01,9.17c-0.72,0.18-1.15-0.68-0.51-0.99c7.76-3.72,11.76-12.36,15.84-18.53c3.97-6,7.11-11.66,9.23-18.32
		c2.82-8.84,2.97-19.24,7.62-27.21c10.9-18.68,20.69-38.49,34.8-55.92C1559.03,465.34,1559.18,465.41,1559.12,465.48L1559.12,465.48
		z"/>
	<path class="st36" d="M1573.7,474.29c-2.24-2.55-3.99-5.29-6.54-7.66c-2.56-2.38-5.53-4.51-8.02-6.95
		c-4.88-4.78-6.12-9.35-5.54-15.54c0.03-0.36,0.65-0.36,0.69,0c0.41,4.08,0.89,8,3.46,11.56c2.14,2.96,5.07,5.13,7.83,7.66
		c3.69,3.38,5.84,6.83,8.35,10.83C1574.02,474.3,1573.8,474.4,1573.7,474.29L1573.7,474.29z"/>
	<path class="st35" d="M1680.47,607.6c-0.02,0.12-0.03,0.23-0.05,0.35c-0.02,0.11-0.09,0.18-0.23,0.19
		c-6.22,0.67-12.1,3.79-18.18,5.14c-7.2,1.59-14.28,3.53-21.38,5.44c-9.35,2.52-21.72,0.6-30.33-3.32
		c-0.37-0.17-0.12-0.66,0.29-0.57c6.27,1.44,13.55,3.29,20.06,3.46c5.64,0.15,10.73-1.96,16.06-3.14
		c6.08-1.34,12.34-2.31,18.37-3.74c1.09-0.26,15.05-3.94,15.02-3.85C1680.15,607.39,1680.5,607.41,1680.47,607.6L1680.47,607.6z"/>
	<path class="st35" d="M1496.39,611.54c-5.91-0.53-10.3-2.91-15.83-4.41c-7.04-1.91-14.37-2.25-21.4-4.23
		c-8.57-2.42-21.15-5.33-26.56-11.97c-0.08-0.1,0.1-0.21,0.2-0.13c7.98,6.2,20.04,8.93,30.21,11.57c5.87,1.52,12.03,2.18,17.87,3.79
		c5.3,1.46,9.97,4.14,15.56,5.02C1496.7,611.22,1496.64,611.57,1496.39,611.54L1496.39,611.54z"/>
	<path class="st35" d="M1477.63,591.14c-3.76,1.23-8.69,1.7-12.75,1.96c-2.69,0.18-5.3,0.25-7.35-1.27
		c-0.15-0.11,0.01-0.33,0.2-0.28c6.46,1.66,13.23-1.21,19.81-0.95C1477.94,590.61,1477.97,591.02,1477.63,591.14L1477.63,591.14z"/>
	<path class="st35" d="M1649.1,600.05c0.04-0.11,0.09-0.21,0.13-0.32c0.13-0.33,0.72-0.13,0.54,0.19c-1.02,1.79-3.33,3.24-5.3,4.35
		c-2.27,1.28-4.43,2.64-6.63,3.96c-1.9,1.13-4.49,2.28-6.79,2.74c-2.54,0.52-3.54-0.52-5.9-0.92c-0.52-0.09-0.39-0.75,0.12-0.75
		c2.56,0.01,4.35,0.63,6.91-0.35c2.26-0.86,3.92-1.91,5.89-3.12c1.17-0.72,2.53-1.35,3.83-1.89c2.55-1.08,4.73-2.85,7.37-3.8
		C1649.18,600.17,1649.07,600.13,1649.1,600.05L1649.1,600.05z"/>
	<path class="st37" d="M1247.81,589.06c0.22,0.33,2.74,4.14,1.91,3.13c0.25,0.3-0.35,0.58-0.59,0.28c-0.8-0.99-4.36-4.32-5.79-4.97
		c0.22,0.1,0.61-2.06,0,0.85c-0.05,0.23-0.46,0.37-0.69,0.23c-1.75-1.05-2.52-4.32-2.56-1.67c-0.01,0.38-0.58,0.57-0.91,0.31
		c-1.61-1.36-3.33-2.62-5.16-3.78c0.34,0.36,0.05,1.04-0.61,0.86c-0.99-0.28-1.66-0.84-2.47-1.37c-2.05-1.36-0.68-1.9-0.39,0.14
		c0.06,0.41-0.52,0.68-0.94,0.59c-4.64-0.98-8.51-1.11-13.23-1.05c-3.8,0.05-6.68-0.2-9.75-2.12c-0.09-0.05-0.01-0.17,0.09-0.12
		c5.43,2.67,9.95,0.57,15.63,0.71c1.03,0.03,6.73,1.37,6.16-0.15c-0.21-0.57,0.71-1,1.21-0.58c1.2,1.03,2.94,3.82,2.88,2.54
		c-0.02-0.36,0.47-0.54,0.83-0.39c1.16,0.48,5.76,3.79,5.16,2.04c-0.16-0.45,0.57-0.65,0.87-0.3c0.44,1.63,1.44,2.2,3.01,1.71
		c-0.07-0.32,0.5-0.58,0.69-0.24c-0.34-0.64,4.64,5.69,5.62,5.29c-1.31,0.53-1.15-1.97-1.12-1.89
		C1247.65,589.04,1247.76,589,1247.81,589.06L1247.81,589.06z"/>
	<path class="st37" d="M1146.03,588.29c0.75,1.04,1.37,2.07,1.97,3.17c0.19,0.34-0.24,0.85-0.7,0.58c-0.55-0.32-3.95-3.1-3.81-3.11
		c0.64-0.08-0.63,1.4-0.55,1.33c-0.2,0.2-0.63,0.18-0.83,0c-0.84-0.72-3.49-3.72-2.54-1.14c0.24,0.64-0.93,0.88-1.2,0.27
		c0.66,1.49-2.11-3.1-2.13-2.38c-0.01,0.39-0.59,0.75-1.03,0.49c-2.95-1.79-4.65-3.95-4.87-6.99c-0.1-1.37-0.01-2.7,0.52-4
		c0.41-0.98,2.46-3.8,1.63-4.97c-0.14-0.2,0.15-0.47,0.4-0.33c1.23,0.69,0.88,1.91,0.62,3.01c-0.28,1.22-0.84,2.2-1.2,3.44
		c-1.02,3.52,0.44,6.58,3.72,8.95c-0.39,0.13-0.78,0.27-1.17,0.4c0.05-0.41,0.11-0.82,0.16-1.23c0.05-0.4,0.49-0.63,0.95-0.45
		c1.74,0.71,3.01,2.29,3.6,3.78c-0.4,0.09-0.8,0.18-1.2,0.27c-0.33-1.03-0.26-2.05-0.02-3.09c0.08-0.35,0.72-0.49,1-0.22
		c0.7,0.68,2.92,3.67,3.05,2.27c0.04-0.4,0.59-0.62,0.97-0.33c1.12,0.85,3.34,3.05,2.07,0.48
		C1145.3,588.21,1145.85,588.04,1146.03,588.29L1146.03,588.29z"/>
	<path class="st37" d="M1110.65,528.01c0.62,1.57,0.33,2.38-0.11,3.99c-0.5,1.78-1.4,3.49-1.81,5.29c-0.84,3.71,0.48,5.64,2.27,8.75
		c-0.4,0.14-0.79,0.27-1.19,0.41c-0.57-2.71-0.64-3.71-0.29-6.39c0.06-0.5,0.95-0.52,0.97,0c0.08,2.11,0.13,4.02,0.58,6.1
		c0.12,0.55-0.84,1-1.19,0.41c-1.98-3.3-3.51-5.83-2.4-9.58c0.78-2.64,3.42-6.12,2.69-8.88
		C1110.08,527.85,1110.55,527.75,1110.65,528.01L1110.65,528.01z"/>
	<path class="st37" d="M1111,540.31c0.68,0.85,0.82,1.64,0.94,2.63c0.26,2.05,1.26,3.53,3.31,4.83c1.85,1.18,2.93,2.21,3.01,4.23
		c-0.36,0-0.72,0-1.09,0c-0.12-3.01-1-6.43-3.35-8.74c-0.27-0.26,0.13-0.59,0.46-0.38c3.13,2.1,3.78,5.94,3.98,9.12
		c0.04,0.58-1.03,0.57-1.09,0c-0.27-2.62-3.99-3.75-5.59-5.93c-1.26-1.73-0.7-3.75-1.01-5.67
		C1110.55,540.21,1110.89,540.17,1111,540.31L1111,540.31z"/>
	<path class="st37" d="M1114.99,543.57c0.55,0.22,0.96,0.46,1.34,0.84c0.85,0.85,1.69,2,2.43,2.96c0.95,1.24,1.78,2.53,2.44,3.88
		c0.62,1.27,1.02,2.73,2.81,3.22c-0.22,0.1-0.45,0.21-0.67,0.31c0.27-0.58-0.76-1.42-1.02-1.89c-0.37-0.67-0.6-1.47-0.8-2.17
		c-0.59-2.06-0.22-4.24,0.07-6.31c0.03-0.19,0.34-0.19,0.37,0c0.32,2.59-0.01,5.23,1.2,7.69c0.43,0.89,1.71,1.92,1.23,2.93
		c-0.1,0.21-0.37,0.4-0.67,0.31c-2.27-0.64-2.69-2.1-3.47-3.76c-0.72-1.53-1.64-3.09-2.72-4.47c-0.55-0.7-1.99-2.77-2.78-3.2
		C1114.49,543.77,1114.72,543.46,1114.99,543.57L1114.99,543.57z"/>
	<path class="st37" d="M1126.3,531.92c1.45,0.38,1.93,1.34,2.42,2.46c0.96,2.17,2.2,4.43,1.66,6.75c-0.09,0.4-0.84,0.46-1.06,0.11
		c-0.67-1.06-1.59-1.92-2.49-2.86c0.27-0.17,0.54-0.34,0.82-0.52c0.64,1.14,0.6,1.34,0.65,2.58c0.1,2.44-0.09,4.75,0.25,7.21
		c0.09,0.63-1.04,0.66-1.27,0.14c-0.78-1.74-1.62-3.44-2.41-5.17c-0.21-0.47,0.75-0.81,0.99-0.34c1.55,2.94,0.09,6.41,0.86,9.55
		c0.12,0.47-0.66,1-1.1,0.53c-0.83-0.88-2.89-6.25-3.13-6.31c-0.4-0.09-0.34-0.67,0.1-0.63c0.11,0.01,0.23,0.02,0.34,0.04
		c0.19,0.02,0.33,0.09,0.4,0.25c0.84,2.07,1.54,4.11,3.23,5.89c-0.37,0.18-0.74,0.35-1.1,0.53c-0.34-1.35-0.7-2.74-0.61-4.12
		c0.12-1.88,0.96-3.47,0.04-5.38c0.33-0.11,0.66-0.23,0.99-0.34c0.91,1.74,1.83,3.47,2.67,5.23c-0.42,0.05-0.85,0.09-1.27,0.14
		c-0.26-2.29,0.64-7.38-0.5-9.36c-0.23-0.41,0.41-0.92,0.82-0.52c1.08,1.05,1.94,1.76,2.75,2.99c-0.35,0.04-0.7,0.08-1.06,0.11
		c0.46-1.71-0.99-7.63-3.11-8.68C1125.98,532.11,1126.09,531.87,1126.3,531.92L1126.3,531.92z"/>
	<path class="st37" d="M1107.2,538.5c-0.28-0.38-0.49-0.82-0.7-1.22c-0.32-0.6-0.71-1.1-1.27-1.57c-0.55-0.47-1.2-0.81-1.89-1.12
		c-0.55-0.25-1.18-0.4-1.58-0.82c-0.33-0.34-0.04-0.9,0.55-0.77c0.96,0.21,1.55,0.36,2.41,0.82c0.72,0.39,1.29,0.86,1.78,1.44
		c0.5,0.6,0.76,1.11,1,1.79c0.18,0.5,0.54,0.96,0.17,1.45C1107.56,538.64,1107.3,538.65,1107.2,538.5L1107.2,538.5z"/>
	<path class="st37" d="M1104.16,534.53c0,0.55-0.25,1.33,0.12,1.84c0.25,0.35,1.02,0.6,1.22,0.25c0.1-0.18-0.01-0.5-0.01-0.7
		c0-0.31,0.39-0.46,0.71-0.33c0.98,0.39,0.34,1.75-0.57,1.87c-1.28,0.18-1.24-1.3-0.75-1.89c0.6-0.71,1.6,0.42,0.63,0.68
		c-0.1,0.03-0.2,0.03-0.3,0c0.21-0.22,0.42-0.45,0.63-0.68c0.2,0.24,0.13,0.43,0.07,0.69c-0.01,0.05-0.11,0.4-0.13,0.4
		c-0.39,0.12-0.48-0.56-0.07-0.41c0.23-0.15,0.46-0.29,0.69-0.44c0.12,0.55,0.68,1.04,0.08,1.57c-0.54,0.48-1.56,0.49-2.24,0.28
		c-1.53-0.48-1.68-2.47-0.61-3.33C1103.83,534.2,1104.15,534.31,1104.16,534.53L1104.16,534.53z"/>
	<path class="st37" d="M1105.56,535.62c0.01-0.01,0.14-0.33,0.05-0.09c-0.03,0.09-0.08,0.19-0.11,0.28
		c-0.06,0.17-0.16,0.4-0.28,0.55c-0.3,0.36-0.79,0.47-1.24,0.24c-0.3-0.15-0.37-0.59,0-0.73c0.41-0.15,0.42-0.38,0.73-0.64
		c0.22-0.18,0.53-0.15,0.75,0c0.04,0.02,0.07,0.05,0.11,0.07C1105.68,535.38,1105.65,535.53,1105.56,535.62L1105.56,535.62z"/>
	<path class="st37" d="M1093.56,547.79c1.47,0.4,3.58,1.44,4.63,2.32c1.26,1.06,0.52,1.18,0.15-0.31c-0.11-0.43,0.53-0.63,0.84-0.29
		c1.06,1.17,2.09,2.47,3.05,3.67c0.49,0.61,0.19,1.09,0.06,0.36c-0.12-0.67-0.37-0.98-0.3-1.68c0.03-0.32,0.5-0.43,0.72-0.16
		c1.84,2.19,2.95,3.68,5.73,5.26c1.46,0.83,2.87,1.44,3.89,2.65c0.15,0.18-0.17,0.35-0.36,0.23c-2.24-1.56-4.96-2.66-7.16-4.26
		c-0.69-0.51-2.19-1.63-2.25-2.46c-0.03-0.42,0.7,0.82,0.83,1.21c0.07,0.21-0.23,0.44-0.48,0.3c-2.2-1.24-3.09-3.02-4.53-4.75
		c0.28-0.1,0.56-0.19,0.84-0.29c0.15,0.75,0.86,1.35,0.62,2.09c-0.07,0.23-0.48,0.34-0.68,0.15c-1.28-1.25-3.89-3.06-5.73-3.69
		C1093.18,548.06,1093.28,547.71,1093.56,547.79L1093.56,547.79z"/>
	<path class="st37" d="M1099.21,552.02c-2.55,0.52-3.08,3.41-3.79,5.09c-0.4,0.96-1.62,2.16-2.92,1.22
		c-1.19-0.86-0.37-3.2,0.03-4.19c0.39-0.95,0.92-1.8,1.6-2.63c0.76-0.94,1.48-1.14,2.53-1.79c0.73-0.45,1.69,0.56,0.98,1.04
		c-0.71,0.48-1.55,0.81-2.14,1.4c-0.67,0.68-1.19,1.48-1.57,2.29c-0.28,0.61-0.77,1.64-0.5,2.28c0.41,0.97,0.54-0.24,0.73-0.77
		c0.54-1.49,2.3-4.81,4.72-4.59c0.2,0.02,0.35,0.1,0.41,0.26c0.02,0.05,0.04,0.1,0.06,0.15
		C1099.42,551.88,1099.33,551.99,1099.21,552.02L1099.21,552.02z"/>
	<path class="st37" d="M1098.16,551.26c-0.66,0.32-1.76,1.01-2.07,1.6c-0.28-0.23-0.56-0.46-0.83-0.68c0.4-0.08,0.64-0.54,0.95-0.76
		c0.39-0.27,0.91-0.41,1.32-0.69c0.53-0.37,1.54,0.14,1.05,0.67c-0.77,0.83-2,1.14-2.64,2.09c-0.69,1.02-1.73,2.45-1.53,3.66
		c-0.37-0.17-0.74-0.35-1.11-0.52c0.06-0.01,0.12-0.03,0.18-0.04c0.71-0.17,1.29,0.49,0.94,1c-0.03,0.04-0.06,0.09-0.09,0.13
		c-0.48,0.69-1.6,0.31-1.69-0.37c-0.19-1.47,0.78-2.8,1.58-4.04c0.37-0.58,0.7-1.08,1.29-1.52c0.61-0.45,1.42-0.64,2.03-1.05
		c0.32,0.26,0.63,0.52,0.95,0.78c-0.53,0.39-1.13,0.65-1.64,1.03c-0.42,0.32-0.6,0.62-1.21,0.71c-0.6,0.09-1.03-0.37-0.76-0.82
		c0.54-0.9,1.97-1.85,3.24-1.59C1098.33,550.88,1098.36,551.16,1098.16,551.26L1098.16,551.26z"/>
	<path class="st37" d="M1089.83,540.11c0.54,0.25,1.11,0.2,1.47,0.75c0.17,0.26,0.14,0.5,0.03,0.76c-0.06,0.15-0.18,0.28-0.25,0.42
		c-0.17,0.31-0.15,0.49-0.17,0.84c-0.09,1.76-1.76,2.24-3.47,1.43c-0.06-0.03-0.02-0.11,0.05-0.1c0.35,0.08,0.8,0.02,1.14-0.08
		c0.6-0.17,0.56-0.3,0.65-0.73c0.09-0.44,0.03-0.9,0.17-1.33c0.13-0.41,0.49-0.55,0.69-0.87c0.27-0.44-0.23-0.59-0.55-0.84
		C1089.44,540.23,1089.65,540.02,1089.83,540.11L1089.83,540.11z"/>
	<path class="st37" d="M1262.96,542.79c-1.7,1.78-5.18,2.94-7.95,2.86c-0.33-0.01-0.58-0.31-0.39-0.56
		c0.72-0.91,1.81-1.26,2.55-2.26c0.23,0.19,0.46,0.37,0.68,0.56c-1.76,0.95-3.55,1.7-5.66,2.02c-2.43,0.36-4.85-0.32-7.29-0.35
		c-0.55-0.01-0.53-0.65,0-0.69c2.04-0.16,3.84,0.03,5.88,0.04c2.52,0.01,4.44-0.64,6.57-1.73c0.42-0.21,0.95,0.22,0.68,0.56
		c-0.28,0.36-1.53,1.73-1.75,1.58c0.91,0.62,6.1-2.08,6.37-2.28C1262.87,542.38,1263.13,542.62,1262.96,542.79L1262.96,542.79z"/>
	<path class="st37" d="M1248.98,543.73c-1.75,0.66-3.12,1.4-5.07,1.4c-2.78,0-5.95-0.79-8.73-1.15c-0.43-0.06-0.6-0.6-0.26-0.82
		c1.26-0.85,2.78-1.7,4.44-1.81c0.71-0.05,0.79,0.81,0.16,0.98c-3.84,1.01-9.49,0.53-13.02-0.91c-0.28-0.11-0.15-0.49,0.16-0.48
		c3.99,0.15,8.67,1.42,12.54,0.42c0.05,0.33,0.11,0.65,0.16,0.98c-1.11,0.07-2.97,1.09-3.59,1.51c-0.09-0.27-0.18-0.55-0.27-0.82
		c4.72,0.62,8.59,1.09,13.29,0.31C1249.05,543.3,1249.26,543.63,1248.98,543.73L1248.98,543.73z"/>
	<path class="st30" d="M1126.59,571.18c22.5-3.21,34.75-25.89,35.35-26.84l-5.86-2.52c-0.13,0.21-14.7,22.42-33.97,25.17
		L1126.59,571.18z"/>
	<path class="st38" d="M1147.91,560.91c-0.8,0.98-2.08,1.79-3.1,2.61c-0.68,0.55-1.5,1.25-2.42,1.51c-1.54,0.44-2.46-0.47-3.3-1.39
		c-0.91-1-1.9-2.29-0.96-3.42c1.3-1.58,3.51-2.36,5.12-3.66c0.14-0.11,0.33,0.01,0.31,0.15c-0.17,0.99-1.81,1.92-2.65,2.53
		c-0.56,0.41-1.39,0.72-1.85,1.2c-0.88,0.91-0.69,1.56,0.23,2.36c0.57,0.49,1.13,1.06,1.98,1.19c1.24,0.19,2.64-0.72,3.54-1.25
		c1.01-0.6,2.2-1.1,3.06-1.87C1147.89,560.86,1147.93,560.88,1147.91,560.91L1147.91,560.91z"/>
	<path class="st38" d="M1148.65,560.93c-1.13-0.29-2.11-0.91-2.99-1.58c-0.68-0.52-1.68-1.19-1.75-2.01
		c-0.02-0.25,0.39-0.3,0.54-0.12c0.56,0.67,1.52,1.35,2.29,1.86c0.73,0.48,1.45,1,2.13,1.52
		C1149.05,560.74,1148.87,560.99,1148.65,560.93L1148.65,560.93z"/>
	<path class="st38" d="M1145.99,558.99c-0.16,0.65-1.09,1.21-1.7,1.61c-0.51,0.34-1.36,0.9-2.03,0.98
		c-0.29,0.03-0.56-0.32-0.22-0.44c0.65-0.23,1.29-1,1.82-1.37c0.54-0.38,1.09-0.93,1.81-1.05
		C1145.87,558.68,1146.03,558.82,1145.99,558.99L1145.99,558.99z"/>
	<path class="st38" d="M1142.93,561.18c0.54,0.82-0.73,1.49-1.47,0.83c-0.73-0.66,0.17-1.56,1.07-1.14c0.1,0.05,0.08,0.15,0,0.2
		c-0.13,0.08-0.36,0.16-0.46,0.26c-0.32,0.12-0.28,0.2,0.11,0.25c0.35,0.22,0.46,0.14,0.34-0.26
		C1142.42,561.13,1142.81,561,1142.93,561.18L1142.93,561.18z"/>
	<path class="st38" d="M1137.24,565.06c-1.26,0.77-1.53-1.35,0.09-0.72c0.1,0.04,0.16,0.14,0.16,0.22c0,0.04,0,0.07,0,0.11
		c0,0.18-0.31,0.31-0.46,0.16c-0.11-0.06-0.12-0.09-0.02-0.09C1137.26,564.6,1137.47,564.92,1137.24,565.06L1137.24,565.06z"/>
	<path class="st38" d="M1133.06,566.72c0.03,0.02,0.06,0.04,0.09,0.06c0.12,0.08,0.09,0.24,0,0.33c-1.02,0.95-2.08-0.63-0.61-0.71
		c0.13-0.01,0.24,0.06,0.31,0.14c0.03,0.04,0.07,0.09,0.1,0.13c0.14,0.18-0.09,0.35-0.3,0.32
		C1132.65,567,1132.86,566.58,1133.06,566.72L1133.06,566.72z"/>
	<path class="st38" d="M1128.44,568.56c0.15,0.19,0.16,0.28,0.08,0.49c-0.06,0.16-0.21,0.23-0.4,0.25
		c-1.23,0.13-0.97-1.42,0.01-1.02c0.17,0.07,0.19,0.24,0.12,0.37c-0.02,0.03-0.04,0.07-0.06,0.1c-0.04,0.07-0.18,0.1-0.27,0.06
		c0.02-0.08,0.03-0.17,0.05-0.25C1128.08,568.41,1128.33,568.42,1128.44,568.56L1128.44,568.56z"/>
	<path class="st38" d="M1149.5,556.51c-0.17,0.29-0.31,0.34-0.68,0.37c-0.09,0.01-0.18-0.04-0.22-0.1
		c-0.22-0.35-0.07-0.66,0.41-0.77c0.09-0.02,0.21,0,0.27,0.06c0.18,0.18,0.22,0.22,0.18,0.46c-0.02,0.13-0.22,0.24-0.35,0.12
		c-0.22-0.21-0.1-0.25,0.19-0.32C1149.46,556.28,1149.55,556.41,1149.5,556.51L1149.5,556.51z"/>
	<path class="st38" d="M1153.91,551.91c0.04,0.53-0.87,1.19-1.36,0.6c-0.42-0.51,0.36-1.05,0.94-0.74c0.21,0.11,0.32,0.41,0.09,0.56
		c-0.12,0.08-0.19,0.12-0.34,0.1c-0.51-0.05,0.01-0.3,0.03-0.52C1153.29,551.57,1153.89,551.57,1153.91,551.91L1153.91,551.91z"/>
</g>
<ellipse class="st0" cx="919.5" cy="632" rx="92.5" ry="20.11"/>
<linearGradient id="SVGID_28_" gradientUnits="userSpaceOnUse" x1="564" y1="624.5652" x2="790" y2="624.5652">
	<stop  offset="0" style="stop-color:#5EBF00"/>
	<stop  offset="0.9966" style="stop-color:#000000"/>
</linearGradient>
<ellipse class="st39" cx="677" cy="624.57" rx="113" ry="24.57"/>
<g>
	<path class="st40" d="M951.66,546.5c-19.7,6.24-39.45-3.49-53.49-17.07c-14.18-13.71-25.51-30.92-35.66-47.72
		c-18.42-30.49-31.74-67.84-64.62-86.06c-13.41-7.43-35.62-13.65-48.25-1.54c-0.74,0.71,0.39,1.84,1.13,1.13
		c7.07-6.78,17.84-6.9,26.94-5.27c8.46,1.51,16.45,4.99,23.66,9.62c15.82,10.15,27.15,25.37,36.57,41.36
		c9.68,16.43,17.94,33.62,28.26,49.68c9.93,15.45,20.85,31.52,34.86,43.6c13.91,12,32.79,19.59,51.03,13.81
		C953.06,547.73,952.65,546.19,951.66,546.5z"/>
	<g>
		<path class="st41" d="M585.36,578.68c0,0,4.9,3.42,4.54,6.34c-0.36,2.92-3.52,3.73-5.45,8.29c-1.13,2.67-1.27,3.88,0,7.64
			s9.16,26.86,5.47,27.22c-8.66,0.86-37.61-30.72-35.58-35.22c2.03-4.5,17.07-20.76,20.75-21.75
			C578.76,570.22,585.36,578.68,585.36,578.68z"/>
		<path class="st42" d="M673.69,456.5c-1.21,0.27-37.52,82.47-85.86,124.87c-0.93,0.82-2.19,1.16-3.41,0.91
			c-2.07-0.43-5.25-1.68-7.69-5.28c-0.98-1.45-0.82-3.4,0.31-4.74c9.35-11.07,46.2-54.84,64.71-128.95L673.69,456.5z"/>
		<path class="st41" d="M758.43,593.59c0,0,5.74-4.27,6.57,4.3c0.83,8.57,1.51,9.07,4.5,10.27c2.99,1.2,24.07,4.46,25.91,12.48
			c0.95,4.16-40.47,13.41-46.69,7.32c-2.95-2.89,0.15-11.59-1.94-16.91c-1.86-4.76-5.18-12.21-2.18-15.53l6.9-8.67L758.43,593.59z"
			/>
		<path class="st42" d="M701.69,431.7c0,0,35.65,70.28,56.74,161.89c0,0-4.47,5.74-13.81,1.94c0,0-46.52-113.81-73.04-152.22
			L701.69,431.7z"/>
		<path class="st43" d="M687.95,368.05c0,0,18.81,59.58,34.1,79.8c0,0-23.98,40.76-96.85,11.21c0,0,12.2-24.1,11.88-37.06
			c-0.5-20.59-6.14-37.29-2.06-51.45l26.79-21.61L687.95,368.05z"/>
		<path class="st42" d="M773.25,385.77c-1.3-2.37-13.68-4.91-13.68-4.91s-37.24-25.64-44.86-32.56
			c-5.21-4.74-29.89-60.57-29.89-60.57l-5.6,15.71v9.73c0,0,20.12,37.52,26.03,44.6c5.91,7.07,53.32,31.52,53.32,31.52
			s-1.96,4.44,3.19,7.03c4.51,2.27,12.81,2.39,13.66-0.8c0.76,0.38,1.51,0.55,2.22,0.39C780.36,395.24,774.55,388.14,773.25,385.77z
			"/>
		<path class="st41" d="M647.25,299.25l-0.73-9.44c0,0,11.92-12.95,25.56-9.75c6.26,1.47,14.06,4.14,15.86,16.59
			c1.8,12.44-2.91,52.92,0.01,71.41c0,0-21.85,13.95-44.09,7.35l-11.61-19.21l11.61-35.5L647.25,299.25z"/>
		<path class="st43" d="M653.66,225.35c0,0-1.48-4.97-7.03-5.06c-6.08-0.09-10.82,15.56-6.08,19.49c4.74,3.93,10.38,0,10.38,0
			L653.66,225.35z"/>
		<path class="st43" d="M687.42,245.91c0,0-3.11-6.69,3.67-11.53c6.78-4.84,6.89-11.51,2.57-15.91c-4.32-4.4-10.73,0-10.73,0
			s-12.97-8.48-27.01,1.07c-7.1,4.83-12.17,18.45-7.46,31.16c4.71,12.71,13.32,13.42,12.35,18.46c-0.98,5.05-6.07,6.64-6.07,6.64
			s17.65,10.63,22.55-8.46C680.16,256.15,687.42,245.91,687.42,245.91z"/>
		<path class="st44" d="M685.9,270.17c0,0-8.91,3.48-8.01,11.46c0.9,7.97,3.98,14.33-0.06,18.59s-16.94-15.55-14.45-19.56
			c3.38-5.45,7.23-12.09,5.35-18.67C666.83,255.41,685.9,270.17,685.9,270.17z"/>
		<path class="st42" d="M665.89,259.27c0,0-4.99-4.59-7.12-1.63c-2.13,2.96,1.73,7.62,5.82,8.29s4.7-0.82,4.7-0.82
			s4.99,10.65,15.15,8.85c10.16-1.8,17.39-20.34,6.65-39.56c0,0-4.48,3.29-14.08,4.13c-9.6,0.84-12.01,4.38-12.46,9.52
			c-0.45,5.14,3.5,9.6,3.5,9.6L665.89,259.27z"/>
		<path class="st42" d="M658.33,416.11c0,0-15.89-54.23-16.38-64.06c-0.5-9.83,16.81-44.67,15.52-54.48
			c-1.29-9.81-6.98-12.71-10.95-7.76c-3.51,4.38-19.35,50-19.24,62.83c0.11,12.83,23.21,69.24,23.21,69.24s-0.06,16.93,10.88,22.97
			c10.93,6.04-4.25-16.44,2.39-18c6.64-1.56,13.02-9.6,8.33-9.02C667.38,418.4,660.76,419.77,658.33,416.11z"/>
	</g>
	<g>
		<g>
			<path class="st45" d="M978.05,615.67c-3.89-0.55-17.49-21.02-17.49-21.02c23.47-31.77,3.88-51.15,3.88-51.15
				c6.74-0.44,9.31-9.32,16.31-13.21c7-3.89,7.93-14.33,5.53-21.32c-2.4-6.99-5.88-2.77-10.4-1.85c-4.52,0.92-12.1-7.44-12.1-7.44
				c-12.1-7.44-21.08,0-21.08,0c-8.27-3.39-20.8,10.02-17.77,19.35c3.03,9.33-2.97,20.71-2.97,20.71c5.43,4.06,16.42-2.1,16.42-2.1
				c3.09,11.33-7.01,25.62-16.42,20.02c-9.41-5.6-21.11-4.2-26.15-1.96c-5.04,2.24-7.84,0-12.94-7.62
				c-5.1-7.62-1.89-21.5-1.32-26.01c0.57-4.51-16.25-0.25-14.17,19.17c2.08,19.41,16.33,21.17,16.33,21.17s-4.86,3.31-7,10.41
				c-2.77,9.19-0.9,18.75-0.9,18.75s-2.22,6.05-0.54,10.11c1.53,3.7,7.06,5.15,5.28,10.77c0,0-5.15,11.55-4.65,15.98
				c0.49,4.42,30.16,7.36,34.73,6.37c4.57-0.99-13.54-12.84-11.5-16.12c2.04-3.27,7.5-10.01,7.5-10.01
				c11.65,4.27,29.54,0.75,29.54,0.75s-0.34,0.75-0.81,1.87l0.15-0.18l10.07-3.54l5.67,7.76c0.88-0.61,2.38-0.27,2.38-0.27
				s10.22,14.25,12.13,15.46c1.91,1.21,17.33-6.22,20.26-9.49C988.98,617.78,981.95,616.22,978.05,615.67z"/>
		</g>
		<path class="st46" d="M875.84,591.57c0,0-3.49-0.7-7.06,2.32c-2.81,2.38-14.79,26.82-11.79,28.2c3,1.37,17.35-8.64,20.48-9.84
			c3.14-1.2,3.11,0.21,3.11,0.21C885.05,601.77,877.28,601.44,875.84,591.57z"/>
		<path class="st46" d="M986.3,508.97c-1.71-5-3.98-4.27-6.78-3.1c1.5,1.61,3.96,3.59,6.84,3.28
			C986.33,509.08,986.32,509.02,986.3,508.97z"/>
		<path class="st46" d="M946.8,605.7l-10.61,3.73c0,0-3.96,8.78-4.09,12.04c-0.13,3.27,12.44,5.69,17.4,7.65
			c4.96,1.96,4.61-2.91,4.04-4.58c-1.86-5.52,0.11-9.47,0.11-9.47L946.8,605.7z"/>
		<path class="st47" d="M938.41,537.64c0,0,8.55,4.33,26.05,5.86c0,0,3.89,3.04,5.55,9.28c0,0-21.56-1.26-32.87-2.55
			C937.14,550.23,935.08,543.14,938.41,537.64z"/>
		<path class="st46" d="M938.41,537.64c0,0,10.73-11.17,8.32-20.35c0,0,5.6,11.91-4.8,21.76L938.41,537.64z"/>
	</g>
</g>
<ellipse class="st0" cx="1183.5" cy="625" rx="92.5" ry="20.11"/>
<g>
</g>
<g>
</g>
<g>
</g>
<g>
</g>
<g>
</g>
<g>
</g>
<g>
</g>
<g>
</g>
<g>
</g>
<g>
</g>
<g>
</g>
<g>
</g>
<g>
</g>
<g>
</g>
<g>
</g>
</svg>
